<svg width="193" height="35" viewBox="0 0 193 35" fill="none" xmlns="http://www.w3.org/2000/svg">
<path d="M12.4358 9.07944C12.4358 9.58657 12.1933 10.0496 11.7964 10.3363C11.3995 10.6229 10.8924 10.7111 10.4073 10.5567L3.15307 8.19747L1.25684 11.7254L9.17253 14.3051C9.74581 14.4815 10.3191 14.5697 10.8924 14.5697C12.0389 14.5697 13.1414 14.2169 14.1116 13.5113C15.5448 12.475 16.3826 10.8434 16.3826 9.05739V0.744812L12.4358 1.47244V9.07944Z" fill="#0067B2"/>
<path d="M11.7743 34.7448L16.2723 28.571C16.559 28.1741 17.022 27.9316 17.5291 27.9316C18.0363 27.9316 18.4993 28.1741 18.786 28.571L23.284 34.7448L26.9001 33.0029L21.9831 26.2558C20.9468 24.8226 19.3151 23.9847 17.5291 23.9847C15.7432 23.9847 14.1336 24.8006 13.0752 26.2558L8.1582 33.0029L11.7743 34.7448Z" fill="#0067B2"/>
<path d="M12.0169 19.9938C11.4656 18.296 10.1868 17.0172 8.48897 16.4659L0.551232 13.8862L0 17.855L7.25421 20.2143C7.7393 20.3687 8.09209 20.7435 8.24643 21.2065C8.40078 21.6916 8.31258 22.1987 8.02594 22.5956L3.54993 28.7694L6.32814 31.6799L11.2451 24.9329C12.2815 23.4776 12.5681 21.6916 12.0169 19.9938Z" fill="#0067B2"/>
<path d="M20.9027 13.5334C21.8508 14.239 22.9753 14.5917 24.1219 14.5917C24.6951 14.5917 25.2684 14.5035 25.8417 14.3272L33.7574 11.7474L31.8612 8.2195L24.6069 10.5788C24.1219 10.7331 23.6147 10.6449 23.2178 10.3583C22.821 10.0716 22.5784 9.60861 22.5784 9.10148V1.49447L18.6316 0.766846V9.10148C18.6536 10.8654 19.4695 12.475 20.9027 13.5334Z" fill="#0067B2"/>
<path d="M31.4644 28.7694L26.9663 22.5956C26.6797 22.1987 26.5915 21.6916 26.7458 21.2065C26.9002 20.7214 27.275 20.3687 27.7381 20.2143L34.9923 17.855L34.441 13.8862L26.5033 16.4659C24.8055 17.0172 23.5266 18.296 22.9754 19.9938C22.4242 21.6916 22.7108 23.4776 23.7471 24.9108L28.6641 31.6579L31.4644 28.7694Z" fill="#0067B2"/>
<path d="M120.323 25.3959C122.814 25.3959 124.578 24.9328 125.615 24.0288C126.651 23.1027 127.18 21.7798 127.18 20.0599C127.18 18.1857 126.651 16.7525 125.57 15.7824C124.49 14.8122 122.77 14.3271 120.389 14.3271C118.096 14.3271 116.376 14.8122 115.229 15.7603C114.083 16.7084 113.509 18.1416 113.509 20.0599C113.509 21.8239 114.061 23.1689 115.141 24.0509C116.222 24.9328 117.941 25.3959 120.323 25.3959ZM120.168 29.9601C118.691 29.9601 117.346 29.8719 116.133 29.6734C114.943 29.475 113.884 29.1663 112.958 28.7474C111.172 27.9536 109.871 26.8291 109.055 25.3518C108.24 23.8745 107.843 22.1105 107.843 20.082C107.843 19.0236 107.975 18.0535 108.24 17.1494C108.504 16.2454 108.879 15.4075 109.386 14.6358C110.423 13.1144 111.856 11.9238 113.752 11.1079C115.626 10.2701 117.831 9.87317 120.345 9.87317C121.624 9.87317 122.836 9.96137 123.939 10.1598C125.041 10.3583 126.055 10.6669 127.004 11.0859C128.878 11.9017 130.333 13.0483 131.347 14.5697C132.362 16.0911 132.869 17.9212 132.869 20.082C132.869 21.0742 132.758 21.9782 132.538 22.8602C132.317 23.7201 131.987 24.5139 131.524 25.2636C130.642 26.7409 129.275 27.9095 127.423 28.7253C125.57 29.5411 123.101 29.9601 120.168 29.9601Z" fill="#0067B2"/>
<path d="M152.03 24.029C150.994 24.9551 149.23 25.396 146.738 25.396C144.357 25.396 142.637 24.9551 141.557 24.051C140.476 23.147 139.925 21.8241 139.925 20.0601C139.925 18.1418 140.498 16.7086 141.645 15.7605C142.791 14.8124 144.511 14.3273 146.804 14.3273C149.186 14.3273 150.905 14.8124 151.986 15.7826C153.044 16.7527 153.595 18.1859 153.595 20.0601C153.573 21.78 153.066 23.1029 152.03 24.029ZM153.794 4.44922V13.0264C152.471 11.064 149.164 9.96154 146.716 9.96154C144.202 9.96154 142.02 10.2702 140.123 11.0861C138.227 11.9019 136.794 13.0925 135.758 14.6139C135.25 15.3857 134.876 16.2235 134.611 17.1276C134.346 18.0316 134.214 19.0017 134.214 20.0601C134.214 22.0886 134.611 23.8526 135.427 25.3299C136.243 26.8072 137.544 27.9538 139.33 28.7255C140.256 29.1444 141.314 29.4531 142.505 29.6516C143.695 29.85 145.04 29.9382 146.54 29.9382C149.494 29.9382 151.898 29.5193 153.772 28.7034C155.646 27.8656 157.013 26.719 157.873 25.2417C158.336 24.492 158.667 23.6982 158.887 22.8383C159.064 22.1107 159.174 21.339 159.196 20.5231V20.5011V4.44922H153.794Z" fill="#0067B2"/>
<path d="M100.324 29.3427C100.324 27.8654 100.324 20.1041 100.324 20.082C100.324 18.1637 100.898 16.7305 102.044 15.7824C103.191 14.8343 105.307 14.3712 107.578 14.3492V9.85114C107.578 9.85114 107.578 9.85114 107.556 9.85114C105.043 9.85114 102.86 10.2701 100.964 11.0859C99.0895 11.9238 97.6342 13.0924 96.5979 14.6138C96.0908 15.3855 95.7159 16.2234 95.4513 17.1274C95.1867 18.0314 95.0544 19.0016 95.0544 20.06C95.0544 20.082 95.0544 27.8654 95.0544 29.3207H100.324V29.3427Z" fill="#0067B2"/>
<path d="M86.8524 10.5347H86.8303V19.3765C86.8303 21.2286 86.5216 22.8603 85.5955 23.9407C84.7577 24.9109 83.3245 25.3959 81.2959 25.3959C79.2674 25.3959 77.8342 24.9109 76.9963 23.9407C76.0482 22.8603 75.7616 21.2286 75.7616 19.3765V10.5347H75.7395H70.1169V16.6424V20.8317C70.1169 23.632 70.8887 25.8369 72.4321 27.4906C73.9756 29.1443 76.8861 29.9601 81.34 29.9601C81.3621 29.9601 81.3841 29.9601 81.4062 29.9601C81.4282 29.9601 81.4503 29.9601 81.4723 29.9601C85.8601 29.9601 88.7045 29.1443 90.2259 27.4906C91.7693 25.8369 92.5411 23.61 92.5411 20.8317V18.7371V10.5347H86.8524Z" fill="#0067B2"/>
<path d="M192.733 4.44922H187.132V29.3429H192.733V4.44922Z" fill="#0067B2"/>
<path d="M166.053 17.9653C166.45 16.7526 167.244 15.7824 168.434 15.1209C169.625 14.4374 171.279 14.1066 173.351 14.1066C175.358 14.1066 176.901 14.4153 177.982 15.0107C179.062 15.606 179.746 16.5982 180.054 17.9653H166.053ZM184.089 14.5256C183.097 13.0262 181.708 11.8576 179.856 11.0638C178.908 10.6449 177.893 10.3362 176.791 10.1378C175.689 9.93933 174.476 9.85114 173.175 9.85114C170.375 9.85114 168.06 10.3362 166.207 11.2843C164.355 12.2545 162.944 13.5334 162.018 15.1209C161.555 15.9147 161.224 16.7305 160.982 17.5904C160.761 18.4504 160.629 19.3544 160.629 20.3025C160.629 22.1987 161.026 23.8745 161.798 25.3297C162.569 26.785 163.848 27.9315 165.612 28.7474C166.516 29.1443 167.552 29.4309 168.743 29.6514C169.934 29.8498 171.279 29.9601 172.756 29.9601C175.865 29.9601 178.467 29.497 180.606 28.593C181.267 28.3064 181.884 27.9536 182.458 27.5126L179.04 23.9627C178.599 24.4919 177.96 24.8887 177.166 25.1754C176.24 25.5061 174.939 25.6605 173.241 25.6605C170.97 25.6605 169.272 25.3518 168.126 24.7124C167.001 24.0729 166.251 23.1469 165.921 21.9341H185.567V19.9277C185.567 17.833 185.082 16.047 184.089 14.5256Z" fill="#0067B2"/>
<path d="M48.751 17.9653C49.1479 16.7526 49.9417 15.7824 51.1323 15.1209C52.323 14.4374 53.9767 14.1066 56.0493 14.1066C58.0558 14.1066 59.5993 14.4153 60.6797 15.0107C61.7601 15.606 62.4436 16.5982 62.7523 17.9653H48.751ZM66.7873 14.5256C65.7951 13.0262 64.406 11.8576 62.5539 11.0638C61.6058 10.6449 60.5915 10.3362 59.489 10.1378C58.3866 9.93933 57.1739 9.85114 55.8729 9.85114C53.0727 9.85114 50.7575 10.3362 48.9054 11.2843C47.0532 12.2545 45.6421 13.5334 44.716 15.1209C44.253 15.9147 43.9222 16.7305 43.6797 17.5904C43.4592 18.4504 43.3269 19.3544 43.3269 20.3025C43.3269 22.1987 43.7238 23.8745 44.4955 25.3297C45.2672 26.785 46.5461 27.9315 48.31 28.7474C49.2141 29.1443 50.2504 29.4309 51.441 29.6514C52.6317 29.8498 53.9767 29.9601 55.454 29.9601C58.563 29.9601 61.1648 29.497 63.3036 28.593C63.965 28.3064 64.5824 27.9536 65.1557 27.5126L61.716 23.9627C61.275 24.4919 60.6356 24.8887 59.8418 25.1754C58.9157 25.5061 57.6148 25.6605 55.917 25.6605C53.646 25.6605 51.9482 25.3518 50.8016 24.7124C49.6771 24.0729 48.9274 23.1469 48.5967 21.9341H68.2426V19.9277C68.2646 17.833 67.7796 16.047 66.7873 14.5256Z" fill="#0067B2"/>
</svg>
