<?xml version="1.0" encoding="UTF-8"?>
<svg id="Layer_2" data-name="Layer 2" xmlns="http://www.w3.org/2000/svg" viewBox="0 0 180 76.51">
  <defs>
    <style>
      .cls-1 {
        fill: #e4022e;
      }

      .cls-1, .cls-2 {
        stroke-width: 0px;
      }

      .cls-2 {
        fill: #fff;
      }
    </style>
  </defs>
  <g id="Layer_1-2" data-name="Layer 1">
    <g>
      <path id="Path_18" data-name="Path 18" class="cls-1" d="M0,0v76.5c5.52-.04,5.56-3.01,11.15-3.01s5.63,3.02,11.26,3.02,5.63-3.02,11.26-3.02,5.63,3.02,11.26,3.02,5.63-3.02,11.26-3.02,5.63,3.02,11.26,3.02,5.63-3.02,11.25-3.02,5.63,3.02,11.26,3.02,5.63-3.02,11.26-3.02,5.63,3.02,11.25,3.02,5.63-3.02,11.26-3.02,5.63,3.02,11.26,3.02,5.63-3.02,11.26-3.02,5.63,3.02,11.25,3.02,5.63-3.02,11.25-3.02,5.63,3.02,11.25,3.02V0H0Z"/>
      <path id="Path_42" data-name="Path 42" class="cls-2" d="M28.16,17.45h-12.16v3.92c.43,0-.12,0,.22,0,3,.03,3,.28,3,2.74v11.91c0,2.44,0,2.71-2.92,2.74-.36,0,.16,0-.3,0v3.92h12.77c7.27,0,13.55-3.65,13.55-12.6,0-9.31-6.05-12.62-14.16-12.62ZM27.74,38.76h-1.52v-17.39h.99c5.59,0,7.84,2.66,7.84,8.72s-2.21,8.68-7.31,8.68Z"/>
      <path id="Path_43" data-name="Path 43" class="cls-2" d="M53.68,24.26c-7.54,0-10.2,4.76-10.2,9.48s2.66,9.4,10.2,9.4,10.2-4.64,10.2-9.4c0-4.72-2.62-9.48-10.2-9.48ZM53.68,39.83c-2.85,0-3.77-3.01-3.77-6.09s.91-6.13,3.77-6.13,3.84,2.97,3.84,6.13c0,3.09-.94,6.09-3.84,6.09h0Z"/>
      <path id="Path_44" data-name="Path 44" class="cls-2" d="M75.48,40.06h-1.52c-4.45,0-4.72-.61-4.72-1.18,0-.42.23-1.18,4.57-1.18h.8c6.13,0,8.71-2.59,8.71-6.47-.07-2.23-1.23-4.29-3.12-5.48,3.08-.68,4-2.78,3.35-5.71h-5.06c.72,1.6,1.18,4.45-3.69,4.45h-.72c-6.93,0-9.06,3.31-9.06,6.74.1,2.06,1.29,3.92,3.12,4.87-2.28.38-3.5,1.48-3.5,2.85s.8,2.4,2.78,2.97c-1.96.16-3.44,1.84-3.35,3.81,0,3.01,2.63,4.91,10.28,4.91s10.39-1.83,10.39-5.4-3.12-5.18-9.25-5.18ZM74.14,27.39c2.09,0,2.7,1.83,2.7,3.84s-.61,3.88-2.7,3.88-2.7-1.94-2.7-3.88c0-2.02.64-3.84,2.7-3.84h0ZM74.41,47.79c-3.92,0-5.21-.68-5.21-1.9s1.29-1.86,5.21-1.86,5.25.65,5.25,1.86-1.29,1.9-5.25,1.9h0Z"/>
      <path id="Path_45" data-name="Path 45" class="cls-2" d="M98.36,36.37c0,2.7-.06,2.91-1.44,2.93h-.2v3.39h9.65v-3.39h-.31c-1.64-.02-1.57-.22-1.57-2.93v-4.76c0-1.86.84-3.81,3.01-3.81s2.36,1.64,2.36,3.58v4.99c0,2.66-.06,2.91-1.53,2.93h-.25v3.39h10.56v-3.39c-.1,0-.2,0-.3,0-2.35-.04-2.35-.38-2.35-2.92v-4.99c0-4.26-1.29-7.08-6.39-7.08-3.77,0-5.1,2.02-5.56,3.16-.95-2.02-2.44-3.16-5.94-3.16-4.07,0-4.8,2.36-4.87,2.63v-2.28h-8.77v3.35c.5,0,0,0,.37,0,2.28.05,2.28.4,2.28,2.92v5.44c0,2.58,0,2.92-2.43,2.92-.22,0,.21,0-.22,0v3.39h10.57v-3.39h-.33c-1.52-.02-1.46-.27-1.46-2.93v-4.76c0-2.32.88-3.81,3.16-3.81,2.09,0,1.98,1.64,1.98,3.58v4.99Z"/>
      <path id="Path_46" data-name="Path 46" class="cls-2" d="M162.55,39.29c-2.55-.03-2.55-.31-2.55-2.93v-4.99c0-4.26-1.29-7.08-6.39-7.08-4.26,0-5.63,2.63-5.63,2.63v-2.28h-8.77v3.35c.48,0-.04,0,.32,0,2.32.05,2.32.39,2.32,2.92v5.44c0,2.58,0,2.89-2.43,2.92-1.97-.04-1.97-.35-1.97-3v-5.56c0-4.45-2.4-6.58-8.94-6.58-7.46,0-9.32,2.93-8.41,6.39h5.63c-.07-.31-.11-.63-.12-.95-.02-1.46.9-2.28,2.9-2.28,2.36,0,2.59.99,2.59,1.75,0,4.11-12.06,1.52-12.06,8.68,0,3.84,2.63,5.37,6.17,5.37,4.87,0,6.28-2.78,6.28-2.78v2.36h18.6v-3.39h-.1c-1.99,0-1.99-.13-1.99-2.93v-4.75c0-2.32,1.26-3.81,3.54-3.81,2.09,0,2.36,1.64,2.36,3.58v4.99c0,2.81,0,2.93-2.02,2.93h-.07v3.39h10.97v-3.39c-.39,0,.11,0-.2,0ZM131.2,34.92c0,2.82-.88,4.6-3.08,4.6-1.24.14-2.36-.75-2.5-1.99,0-.09-.01-.17-.01-.26,0-3.23,2.78-2.4,5.59-4.19v1.83Z"/>
      <path id="Path_47" data-name="Path 47" class="cls-2" d="M96.11,49.55c-.02-.74-.41-1.41-1.02-1.82-.8-.41-1.7-.56-2.59-.41-.53.05-1.06.15-1.57.31-.42.13-.84.29-1.23.49-.22.08-.33.32-.25.53,0,.02.02.05.03.07l.41.95c.05.21.27.33.47.28.04-.01.09-.03.13-.06.26-.12.53-.23.81-.32.31-.1.63-.17.95-.2.76-.07,1.16.12,1.2.57l.02.2c-.66.07-1.26.16-1.78.26-.46.08-.91.24-1.33.46-.34.18-.61.46-.8.79-.19.4-.25.84-.19,1.27.02.33.11.66.27.96.13.25.32.46.54.62.22.16.48.27.75.32.29.06.59.07.88.04.49-.02.97-.16,1.4-.39.29-.16.54-.39.73-.66l.16.37c.03.09.09.17.16.23.1.07.22.09.33.07l1.54-.15c.22.01.41-.16.42-.38,0-.04,0-.08-.01-.11l-.42-4.32ZM93.5,52.75c-.18.22-.46.35-.74.34-.19.03-.39-.01-.55-.12-.15-.12-.24-.3-.24-.49-.05-.28.08-.55.32-.69.41-.19.86-.3,1.31-.32l.05.54c.04.25-.01.51-.14.73h0Z"/>
      <path id="Path_48" data-name="Path 48" class="cls-2" d="M102.56,46.97c-.44-.05-.89.02-1.3.2-.32.14-.61.35-.84.62l-.11-.48c-.02-.09-.06-.18-.12-.26-.09-.08-.2-.13-.32-.12l-1.65-.13c-.22-.05-.43.09-.48.3,0,.04-.01.08,0,.11l-.48,6.27c-.05.22.09.43.3.48.04,0,.08.01.11,0l1.86.14c.22.05.43-.09.48-.3,0-.04.01-.08,0-.11l.27-3.53c0-.28.09-.55.25-.78.16-.2.42-.29.67-.25.22-.01.43.1.54.29.09.25.12.52.09.78l-.28,3.6c-.05.22.09.43.3.48.04,0,.08.01.11,0l1.86.14c.22.05.43-.09.48-.3,0-.04.01-.08,0-.11l.32-4.15c.1-.71-.03-1.44-.37-2.07-.4-.54-1.04-.86-1.72-.84Z"/>
      <path id="Path_49" data-name="Path 49" class="cls-2" d="M112.12,45.07l-1.86.07c-.22-.02-.42.14-.44.36,0,.04,0,.08,0,.11l.1,2.42c-.1-.13-.23-.25-.37-.33-.16-.09-.32-.17-.49-.23-.18-.06-.36-.1-.55-.13-.17-.03-.35-.04-.53-.03-.81-.02-1.57.36-2.05,1.01-.51.86-.72,1.86-.61,2.86-.04,1,.26,1.98.83,2.8.53.61,1.32.92,2.12.84.19,0,.38-.04.56-.09.19-.05.38-.12.56-.2.18-.08.35-.18.5-.3.14-.11.27-.24.37-.38l.12.38c.03.09.08.18.15.24.09.07.21.1.33.09l1.62-.06c.22.02.42-.14.44-.36,0-.04,0-.08,0-.11l-.34-8.52c.02-.22-.13-.42-.35-.44-.04,0-.08,0-.13,0ZM109.87,52.26c-.15.25-.42.4-.72.4-.29.03-.57-.1-.74-.34-.21-.39-.31-.83-.29-1.28-.05-.44.01-.89.19-1.29.15-.25.42-.4.71-.4.29-.03.57.1.74.34.22.39.32.83.3,1.28.05.44-.01.89-.2,1.3h0Z"/>
      <path id="Path_50" data-name="Path 50" class="cls-2" d="M122.66,44.93c-.18-.05-.36-.08-.55-.1-.23-.03-.43-.05-.6-.05-.68-.08-1.36.07-1.95.42-.49.43-.75,1.06-.71,1.71l-.02.44-.43-.02c-.22-.04-.43.1-.47.32,0,.04,0,.08,0,.11l-.05,1.04c-.04.22.1.43.32.47.04,0,.08,0,.11,0l.43.02-.21,4.53c-.01.27.14.41.45.42l1.78.08c.31.01.47-.11.48-.38l.21-4.53.98.04c.22.04.43-.1.47-.32,0-.04,0-.08,0-.12l.05-1.04c.04-.22-.1-.43-.32-.47-.04,0-.08,0-.11,0l-.98-.04v-.21c0-.15.05-.29.15-.4.14-.09.32-.13.48-.1.07,0,.14.01.21.02.09.01.17.02.26.03.25.01.38-.14.39-.45l.04-.93c.02-.12-.02-.24-.1-.33-.09-.08-.2-.13-.32-.17Z"/>
      <path id="Path_51" data-name="Path 51" class="cls-2" d="M128.36,46.94c-.22,0-.44.03-.65.11-.19.07-.38.16-.55.27-.16.11-.31.24-.43.38-.12.13-.22.27-.31.43l-.16-.69c-.02-.1-.07-.2-.13-.28-.09-.08-.2-.12-.32-.11h-1.65c-.22-.03-.42.12-.45.34,0,.04,0,.08,0,.11v6.29c-.03.22.12.42.34.45.04,0,.08,0,.11,0h1.87c.22.03.42-.12.45-.34,0-.04,0-.08,0-.11v-3.04c-.02-.34.1-.67.34-.92.28-.24.64-.36,1.01-.33.1,0,.21,0,.31.02.09.01.18.02.27.02.1,0,.19-.02.28-.07.07-.04.11-.14.11-.29v-1.81c.01-.12-.02-.24-.1-.33-.1-.08-.22-.11-.34-.1Z"/>
      <path id="Path_52" data-name="Path 52" class="cls-2" d="M131.92,45.31l-1.92.13c-.22-.02-.41.15-.43.37,0,.04,0,.07,0,.11l.05.7c-.02.22.15.41.37.43.04,0,.07,0,.11,0l1.92-.13c.22.02.41-.15.43-.37,0-.04,0-.07,0-.11l-.05-.7c.02-.22-.15-.41-.37-.43-.04,0-.08,0-.11,0Z"/>
      <path id="Path_53" data-name="Path 53" class="cls-2" d="M131.86,47.66l-1.86-.1c-.22-.04-.43.1-.47.31,0,.04,0,.08,0,.11l-.35,6.28c-.04.22.1.43.31.47.04,0,.08,0,.11,0l1.86.1c.22.04.43-.1.47-.31,0-.04,0-.08,0-.11l.35-6.28c.04-.22-.1-.43-.31-.47-.04,0-.08,0-.11,0Z"/>
      <path id="Path_54" data-name="Path 54" class="cls-2" d="M139.81,51.96c-.04-.12-.13-.21-.25-.26-.12-.04-.25-.02-.35.06-.26.16-.53.28-.82.39-.28.1-.57.18-.87.22-.7.2-1.44-.14-1.74-.8l3.98-.5c.22,0,.4-.17.41-.39,0-.04,0-.08-.01-.11l-.08-.64c-.06-.49-.2-.97-.41-1.42-.19-.4-.47-.75-.81-1.03-.35-.27-.75-.47-1.17-.57-.49-.12-1-.14-1.51-.07-.52.06-1.02.21-1.48.43-.42.21-.78.5-1.07.87-.29.37-.49.8-.59,1.26-.12.53-.13,1.08-.06,1.63.06,1.04.57,2.01,1.4,2.64.93.58,2.05.78,3.13.57.5-.06.98-.18,1.45-.36.36-.14.71-.32,1.03-.53.11-.06.19-.15.25-.27.03-.11.02-.23-.04-.34l-.37-.79ZM135.72,49.09c.17-.25.45-.4.75-.42.28-.05.56.03.78.21.23.24.36.56.38.89v.09s-2.12.27-2.12.27c-.04-.36.04-.73.21-1.05Z"/>
      <path id="Path_55" data-name="Path 55" class="cls-2" d="M147.72,49.06c-.02-.72-.26-1.42-.7-1.99-.48-.47-1.17-.68-1.83-.55-.44.02-.88.16-1.25.4-.3.19-.54.44-.73.74l-.19-.45c-.03-.09-.09-.17-.16-.23-.1-.07-.22-.09-.33-.07l-1.65.14c-.22-.01-.41.16-.42.38,0,.04,0,.08,0,.11l.53,6.27c-.01.22.16.41.38.42.04,0,.08,0,.11,0l1.86-.16c.22.01.41-.16.42-.38,0-.04,0-.08,0-.11l-.3-3.53c-.04-.27,0-.55.12-.81.13-.22.37-.36.62-.35.22-.05.44.03.58.21.13.23.21.49.21.76l.31,3.6c-.01.22.16.41.38.42.04,0,.08,0,.11,0l1.86-.16c.22.01.41-.16.42-.38,0-.04,0-.08,0-.11l-.35-4.14Z"/>
      <path id="Path_56" data-name="Path 56" class="cls-2" d="M155.9,45.21l-1.86-.1c-.22-.04-.43.1-.47.31,0,.04,0,.08,0,.11l-.13,2.42c-.09-.14-.2-.27-.34-.36-.15-.11-.3-.2-.47-.27-.17-.08-.35-.14-.54-.18-.17-.04-.34-.07-.52-.08-.8-.09-1.6.21-2.14.81-.59.81-.9,1.79-.88,2.79-.13.99.07,2,.57,2.87.47.66,1.23,1.04,2.04,1.04.19,0,.38,0,.57-.04.2-.03.39-.08.58-.15.18-.06.36-.15.52-.25.15-.09.29-.21.4-.34l.08.39c.02.09.06.18.13.25.09.08.2.12.32.12l1.62.09c.22.04.43-.1.47-.31,0-.04,0-.08,0-.11l.46-8.52c.05-.22-.09-.43-.31-.47-.04,0-.08-.01-.12,0ZM153.29,50.91c.01.44-.1.88-.32,1.27-.17.23-.46.36-.75.33-.29,0-.56-.15-.7-.41-.17-.41-.23-.86-.17-1.3-.01-.44.1-.88.31-1.27.17-.23.46-.36.74-.33.29,0,.56.15.71.41.18.41.24.86.17,1.3Z"/>
      <path id="Path_57" data-name="Path 57" class="cls-2" d="M162.07,50.29c-.2-.19-.43-.34-.68-.46-.26-.13-.53-.26-.82-.38-.29-.12-.53-.24-.71-.35-.18-.1-.27-.22-.26-.37,0-.13.1-.25.22-.28.18-.06.38-.08.57-.06.23.01.45.04.68.09.22.05.41.1.58.15.2.11.45.03.55-.17.02-.03.03-.06.04-.09l.3-.86c.05-.11.06-.24.02-.35-.06-.11-.16-.19-.28-.23-.31-.14-.64-.24-.98-.31-.41-.09-.82-.14-1.24-.17-.42-.03-.84,0-1.25.06-.35.05-.68.17-.99.35-.27.16-.49.39-.66.65-.17.3-.26.64-.27.99-.03.37.02.73.16,1.08.11.27.29.5.5.7.21.18.44.33.7.44.26.11.51.21.76.31.24.08.47.18.7.3.16.09.23.19.22.32-.01.26-.36.37-1.05.33-.25-.01-.51-.05-.76-.11-.22-.06-.42-.12-.59-.18-.19-.11-.44-.04-.55.15-.02.03-.03.07-.04.11l-.3.86c-.05.11-.06.24-.02.35.06.11.16.19.28.23.32.14.66.25,1,.33.45.11.92.17,1.38.19.39.02.79.01,1.18-.03.36-.04.72-.13,1.05-.28.31-.14.58-.36.77-.63.22-.33.33-.71.34-1.1.03-.32-.02-.64-.13-.94-.1-.24-.24-.46-.43-.64Z"/>
    </g>
  </g>
</svg>