<svg id="Layer_1" data-name="Layer 1" xmlns="http://www.w3.org/2000/svg" viewBox="0 0 292.18 75.53"><defs><style>.cls-1{fill:#231f20;}.cls-2{fill:#fff;}</style></defs><polygon class="cls-1" points="290.95 71.64 290.95 48.96 139.68 48.96 139.68 71.64 290.95 71.64 290.95 71.64 290.95 71.64"/><polygon class="cls-1" points="31.32 71.64 31.32 48.96 0.07 48.96 0.07 71.64 31.32 71.64 31.32 71.64 31.32 71.64"/><polygon class="cls-1" points="14.47 11.45 14.76 11.45 16.63 11.45 17.57 12.02 17.86 12.31 18.22 12.96 18.22 13.03 18.58 13.82 18.65 13.97 18.65 14.62 18 15.7 16.56 16.49 16.34 16.34 15.7 16.56 14.33 17.57 12.38 19.87 11.38 21.17 10.44 22.46 9.22 24.48 7.49 26.86 6.91 28.01 6.91 28.87 8.71 29.52 10.08 29.74 13.82 29.74 18.43 29.16 23.69 27.65 23.9 27.58 23.9 27.65 23.26 28.3 22.46 29.16 22.1 29.52 21.96 29.81 20.52 30.96 20.09 31.03 19.58 31.61 19.15 31.82 19.08 32.04 16.78 33.05 16.78 33.12 16.06 33.7 15.34 33.55 14.76 34.13 14.33 34.13 14.26 34.34 11.3 35.28 11.16 35.21 9.79 35.57 9.58 35.71 9.14 36.07 7.34 35.86 4.82 35.42 4.39 35.21 2.66 33.98 1.01 31.82 0.86 31.46 0.22 29.81 0 27.86 0.43 26.86 0.58 26.14 0.79 26.14 1.44 24.7 2.52 22.9 4.61 20.09 9.14 15.19 11.16 13.39 12.82 12.31 14.47 11.45 14.47 11.45 14.47 11.45"/><polygon class="cls-1" points="53.57 12.1 54.22 11.74 55.22 11.74 56.45 12.96 56.45 14.4 56.3 15.19 57.74 14.4 59.69 13.9 62.42 13.97 63.72 14.18 66.02 15.41 66.96 16.13 67.68 17.57 67.82 18.36 67.03 19.08 67.03 19.37 66.17 20.23 65.38 20.09 65.02 19.51 64.3 19.22 61.78 18.65 60.98 18.65 59.47 18.86 57.74 19.8 56.45 20.88 54.79 23.18 53.64 25.42 52.34 30.24 51.91 33.19 51.77 34.2 51.26 36.65 51.05 37.08 49.97 37.44 49.25 37.94 48.67 38.09 48.1 37.87 47.95 37.44 47.02 35.86 46.8 35.14 46.87 34.78 46.66 34.56 46.44 33.91 46.66 33.19 47.02 32.47 47.09 30.96 48.67 24.34 50.83 16.99 52.34 13.54 53.57 12.1 53.57 12.1 53.57 12.1"/><path class="cls-1" d="M256.75,402.09l-1.29,1.3L254,404.68l-1.8,1.15L250,407.06l-2.37.86h-1.37l1.87-2.23,1.3-1.37,2.66-2.09,2.59-1.29,2.16-.87,1.44-.28h.29l-1.8,2.3Zm-4-3.82-2.95,1.88-4,3-.79.57-.94,1.08-1.15,1-1.51,1.95-1.3,1.87-.07,1v.86l-.22.43.22.29v.29l.29,1.15-.15.36.15.79.86,1.95.86,1.22,1,1,.87.57.43.36.43-.07.22.07h.79l.14.08v.14l.22.14.72.22h.5l.15.22h.86l.29.07h.65l.43.14.29-.21h1.22l.07-.15.79.15,1.3-.22.94-.14,1.36-.22.36-.29h.65l.07-.14.58.14.43-.14.29-.29h.5l1.44-.58.22-.36.86-.07.65-.21.15-.22,1.51-.79,1.65-1v-.22h-.21l-1.59.36-2.95.44-3.24.21-4.39-.21-.22-.22-2.66-.36-2.38-.65-1.51-.86-.36-.58-.14-.29.36-1,1.29-.15,2.88-1.08.22-.29.86-.36,1.88-1.29.64-.36.65-.51h.22l.65-.36.14-.28,1.15-1,1.37-1.3,1.08-1.08.43-.36.79-.65.44-.57.07-.43.93-1.16.08-.36.07-.43.43-.86.14-1.37-.28-.94.21-.28-.21-.72-.58-.58-2.09-.22-2.09.65-4.39,1.87Z" transform="translate(-152.21 -383.73)"/><path class="cls-1" d="M306.72,402.31l-4.54,4.46-3.81,3.46-3.24,2.66-.79-.43.14-.94,1.15-2.45,1.87-2.16,2.24-2.37,3.81-2.74,3-1.87,2.08-.72.58.07-2.52,3Zm-3.17-5.12-4,2.52-4.75,3.39L291.53,406l-1.23,1.51-.28.36-1.37,2.52-.51,2.16-.28,1.73.07,1.51.43.94.65,1,1.65.8,2.09.64,1.08.15,2.31-.79,1.94-1.3,1.22-1,.58-.5.22-.22.64-.65.72-1.08,1.59-1.51,1.51-1.8v-.29h.22l-.36,2.31-.29,3.17.43,2.88.29,1.44v.43l.5,1.22.51,1.23,1.65,1.65.72.36,1.23.15h.36l.14-.37.72-.5H311l.29-.36.86-.21v-.22l-.5-.07-.79-.29-.65-.58-.22-.5-.43-.65-.14-1.65-.36-.36.14-.65.29-.87-.15-.64.36-.8v-1.08l.29-.07.15-1,.64-2.52.8-1.44v-.28l1.22-3.24,1.58-4-.21-1.08.43-.86-.14-1.73-.22-.29-.43-.64-.29-.36-1.3-.36-.93.07h-.15l-1.51,1.29.65-1.51-.14-.43-1.08-1.22h-.87l-2.09.5-2.59,1.22Z" transform="translate(-152.21 -383.73)"/><polygon class="cls-1" points="201.89 0.07 202.9 0.07 203.33 0 203.76 0.29 204.41 0.94 205.2 2.16 205.63 3.6 205.78 4.82 204.84 8.21 204.77 8.78 205.49 8.93 207.14 9.07 209.88 9.36 213.26 9.65 216.79 10.08 218.09 10.58 218.3 10.8 218.23 10.94 216.65 11.38 215.57 11.88 214.92 11.88 214.63 12.24 212.76 12.31 212.62 12.67 212.33 12.82 211.03 12.89 209.81 13.25 206.86 14.11 204.12 15.12 203.11 15.62 201.67 16.2 200.74 17.71 200.59 18.72 200.3 19.37 199.8 20.3 199.73 21.02 199.58 21.46 199.15 22.18 198.58 24.19 198.5 24.98 197.93 26.57 197.64 27.94 197.5 28.87 197.35 29.23 197.42 29.45 197.5 31.18 197.64 31.39 198.86 32.04 199.94 31.97 201.24 31.32 201.6 31.1 201.89 31.1 201.89 31.32 201.6 31.61 201.46 32.4 201.24 32.98 200.88 33.84 200.16 34.49 199.15 35.71 197.86 36.65 196.85 37.01 195.98 37.66 193.68 37.01 191.74 35.93 190.44 34.42 189.72 32.47 189.29 29.45 189.65 26.35 191.3 20.23 192.17 17.5 190.87 17.71 187.56 17.64 186.05 16.85 185.33 16.27 185.11 16.06 184.82 15.19 184.54 14.83 184.82 14.11 184.68 13.68 185.33 12.82 186.62 12.31 189.65 11.02 193.1 10.3 194.98 9.94 195.34 9.86 197.93 4.54 199.94 1.44 201.02 0.22 201.89 0.07 201.89 0.07 201.89 0.07"/><path class="cls-1" d="M391.61,400.43l1-.43.64.22.29-.22h.29l.86.72.44.29.79,1.51.07,1.08v1.08l-1,2.09-1.51,5-.36,3.17-.07,1.08.65.21,1.94-.07,2.52-.65-.43.87v.29l-.65,1.08-.43.5.14.29-.79.57h-.22l-.21.44-.87.28-.21.29-2,1.15-.79.58-1.37.22-.21.07-.36-.15-1.3-.57-1.66-1.23-1-1.22-.44-1.08-.43-2.38V412.6l.43-1.8,1.3-3.31,2-3.38,1.72-2.24,1.23-1.44Zm2.95-11.08.43-.15.79.51.72.21.29.94.15.14-.15.22v1.29l-.36,1.44-1.22.72L394,395l-.93-.29L391.68,393l-.07-.87v-.86l.21-.87.58-.14v-.29l.5-.43h.36l.22-.29,1.08.15Z" transform="translate(-152.21 -383.73)"/><polygon class="cls-1" points="274.82 6.98 275.19 6.91 276.12 7.06 276.62 7.42 276.7 7.78 277.13 8.42 277.56 12.67 277.27 18.79 277.06 22.97 276.91 23.83 277.06 25.63 276.91 26.14 277.49 29.09 277.78 29.74 278.14 29.3 282.02 21.46 284.4 17.35 285.55 15.77 288 11.81 290.59 8.21 291.81 6.91 292.18 6.91 291.74 7.78 291.89 7.99 292.03 8.42 291.74 8.86 290.81 10.37 290.74 11.02 291.02 11.02 290.16 12.6 289.73 13.82 289.66 14.54 289.37 14.9 288.94 16.2 288.65 17.21 288.36 18.22 288.22 18.58 287.64 19.8 287.86 20.16 287.21 21.74 287.35 22.03 286.42 23.83 283.03 30.96 281.95 32.83 281.02 33.84 280.08 34.42 278.93 35.35 277.99 35.35 276.84 35.71 275.62 35.71 274.97 35.35 273.6 33.48 272.66 31.18 271.8 28.66 271.15 25.63 270.79 22.68 270.79 18.36 270.94 17.35 271.01 16.27 271.66 12.82 272.45 9.5 273.74 7.34 274.39 6.91 274.82 6.98 274.82 6.98 274.82 6.98"/><path class="cls-2" d="M307.7,446.51l.29.87h0a.22.22,0,0,1,.07.14c0,.15-.14.29-.5.43a3.18,3.18,0,0,1-1.44.29c-1.87,0-2.95-1.22-2.95-3.45s1.22-3.68,3.17-3.68a3.23,3.23,0,0,1,1.72.51c.15.14.15.14.15.21v.22h0l-.51.79h0a.29.29,0,0,1-.07.15c-.07,0-.14,0-.14-.08a1.77,1.77,0,0,0-1.15-.43c-.94,0-1.37.72-1.37,2.23s.43,2.16,1.37,2.16a1.62,1.62,0,0,0,1.08-.36.22.22,0,0,1,.14-.07c.07,0,.07,0,.14.07Z" transform="translate(-152.21 -383.73)"/><path class="cls-2" d="M328.58,444.71c0,2.16-1.08,3.53-2.88,3.53s-3-1.29-3-3.6c0-2.16,1.15-3.53,3-3.53s2.88,1.3,2.88,3.6Zm-2.95,2.16c.87,0,1.15-.64,1.15-2.16s-.28-2.23-1.15-2.23-1.08.65-1.08,2.23.29,2.16,1.08,2.16Z" transform="translate(-152.21 -383.73)"/><path class="cls-2" d="M343.79,443.06v4.75h0c0,.22,0,.22-.21.22h-1.3c-.14,0-.22,0-.22-.22h0v-4.54h0a3.29,3.29,0,0,0-.21-1.51c-.07-.07-.07-.07-.07-.14a.16.16,0,0,1,.14-.15h0l1.15-.36h0c0-.07.07-.07.15-.07a2.26,2.26,0,0,1,.43,1,2.52,2.52,0,0,1,2-.94,1.46,1.46,0,0,1,1.44.94,2.89,2.89,0,0,1,2.09-.94,1.32,1.32,0,0,1,1.3.65,3,3,0,0,1,.29,1.59h0v4.46h0c0,.22-.08.22-.22.22h-1.3c-.14,0-.21,0-.21-.22h0v-4.32h0c0-.79-.15-1.08-.58-1.08s-.72.21-1.22.65h0v4.75h0c0,.22,0,.22-.22.22h-1.22c-.22,0-.22,0-.22-.22h0v-4.18h0c0-.86-.14-1.15-.65-1.15a1.57,1.57,0,0,0-1.15.58Z" transform="translate(-152.21 -383.73)"/><path class="cls-2" d="M366,441.76a2.74,2.74,0,0,1,1.73-.65c1.51,0,2.38,1.16,2.38,3.46s-.87,3.67-2.52,3.67a2.41,2.41,0,0,1-1.37-.36h0v2.52h0c0,.15,0,.22-.22.22h0l-1.22.29h-.14c-.08,0-.15-.08-.15-.22h0V443.2h0a3.31,3.31,0,0,0-.29-1.37v-.07c0-.07,0-.07.15-.14h0l1.15-.51h.14c.15,0,.29.29.36.65Zm.22,1.23v3.74h0a2.3,2.3,0,0,0,.94.22c.93,0,1.22-.58,1.22-2.31,0-1.51-.36-2.16-1.08-2.16a1.59,1.59,0,0,0-1.08.51Z" transform="translate(-152.21 -383.73)"/><path class="cls-2" d="M388.52,443.85v-.43h0c0-.72-.22-1-.94-1a5.36,5.36,0,0,0-1.51.36.24.24,0,0,1-.14.07c-.07,0-.07-.07-.15-.14h0l-.28-.87h0v-.07c0-.14.07-.21.36-.36a6.17,6.17,0,0,1,1.94-.29c1.22,0,2,.44,2.23,1.3a2.33,2.33,0,0,1,.15.86h0V446h0a3.4,3.4,0,0,0,.28,1.51c0,.07.08.07.08.15s-.08.07-.15.14h0l-1.08.43h-.14c-.15,0-.29-.21-.43-.79a2.08,2.08,0,0,1-1.73.79,1.91,1.91,0,0,1-2-2.09,1.83,1.83,0,0,1,1.15-1.87,4.55,4.55,0,0,1,2.24-.43h.14Zm0,1.15h-.14c-1.23,0-1.73.29-1.73,1.08a.89.89,0,0,0,.86.94,1.37,1.37,0,0,0,1-.51h0V445Z" transform="translate(-152.21 -383.73)"/><path class="cls-2" d="M406.67,442a2.83,2.83,0,0,1,2.09-.87c1.22,0,1.73.65,1.73,2.16h0v4.54h0c0,.22,0,.22-.22.22H409c-.15,0-.22,0-.22-.22h0v-4.18h0c0-.79-.22-1.15-.79-1.15a1.57,1.57,0,0,0-1.15.58h0v4.75h0c0,.22,0,.22-.22.22h-1.3c-.21,0-.21,0-.21-.22h0v-4.54h0a3.09,3.09,0,0,0-.29-1.51c0-.07-.07-.07-.07-.14s.07-.07.14-.15h0l1.23-.43h.14c.14,0,.29.29.43.94Z" transform="translate(-152.21 -383.73)"/><path class="cls-2" d="M428.49,447.09l.07-.43h0c.14-.87.14-1,.22-1.3h0l.14-.57.79-3.39h0c0-.14.07-.14.15-.14h.07l1.22.14h0c.15,0,.22,0,.22.15v.07h0l-1.37,5h0a5.67,5.67,0,0,0-.22.86c-.36,1.37-.5,1.73-.64,2.16a2.68,2.68,0,0,1-.72.94,2,2,0,0,1-1.37.43,3.77,3.77,0,0,1-1.73-.5c-.07,0-.07-.08-.07-.15v-.07h0v-.07l.43-.87h0c0-.07.07-.07.14-.07h.08a2.61,2.61,0,0,0,1.08.36c.57,0,.79-.29,1-1.08h0l.22-.57h-.58c-.21,0-.21,0-.28-.15h0l-2.09-6.19h0l-.07-.14c0-.15.07-.15.21-.15h0l1.37-.14h.14c.08,0,.08,0,.15.14h0l.86,3.39.22.57.14.65h0c0,.22.07.43.07.65h0l.15.43Z" transform="translate(-152.21 -383.73)"/><path class="cls-1" d="M194.33,439.24a9.87,9.87,0,0,0,.14,1.95c0,.07.22.57,0,.79-.29-.36-.72-2.09-.43-2.45-.29-.29.22-1.3.22-1.08h0l.07.79Z" transform="translate(-152.21 -383.73)"/><path class="cls-1" d="M193.82,439c0,.07.08.43,0,.57a3,3,0,0,1-.28-2.73c.43.36.14,1,.14,1.44.22,0,.14.14.14.14s0,.43,0,.58Z" transform="translate(-152.21 -383.73)"/><path class="cls-1" d="M192.82,435.71a.7.7,0,0,0-.51-.5h0l-.14.07h0c0,.36-.36.72-.29,1.23.22.86,1.73-.44.94-.8Z" transform="translate(-152.21 -383.73)"/><path class="cls-1" d="M214.92,453.57c.07,1.51,1.37,1.22.58,1.44-.87-.5-.29.5-.72,1.8-.22-.94,0-2.09-1.16-1.94-.57.07-3.31-.36-3.6-.15a19.22,19.22,0,0,0-4.53.15c-.72-.15-2,.14-2.81,0s-.79.79-1.44,1c-.94.15-.22-1.44-.94-.93a27.8,27.8,0,0,1-4.17.07c-.65-1.22-1.37,2.16-1.51,1.51-.15-.14-.15-.65-.29-.72h0v.36h0c-.36.29-.51-.5-.36-.65-.58-.57-1.08-.57-1.15-1.15A3.71,3.71,0,0,0,194,454c.07-.5-.65-.65-1.51-.65a4.31,4.31,0,0,0-1,.08c-.51-.08-.65.14-1-.08s.65-.07.79-.07c.36-.07.87,0,1.15-.07,1.88.36,1.59-.72,1.44-1.08a9,9,0,0,1-.14-3.17c.29,0,.14-1.15.14-1.29h0l-.07-2.74h0c-.07-.79.51-2.45-.21-3.17a1,1,0,0,0,0-.65c.28-.28.07-1,0-1.44,0-.72-.58-2.16-.08-2.8-.07-.08,0-.08.15-.15-.29-.29-.15-1.58-.22-1.94.43.36.22-.15.22-.22.21.22,2,.14,1.65.07-.07-.07-.57-.28-.5-.43.43.15.29-.43.29-.5a1.25,1.25,0,0,0-.51-.94c-.64-.5-2.37.51-2.37-.07a18.36,18.36,0,0,1,2.73-.14c.87.28,2.24.64,2.74-.51a3.59,3.59,0,0,1,2.88-.14c0,.29-2.88,1-1.51,1.29a12.33,12.33,0,0,1,3.31.22c.22,0-5.83-.22-6.7.86-.5.65,1.3.15,2.45.15,1.8-.36,6.77-.22,4.9-1.08-1.51-.29,4.89.14,4.89.14.58-.14,4,.65,4-.36.36,0,.93.22,1.15.07.79,2.45.36-1.36.65-2.16,0,.58-.15,2.38.28,2.81.15-.14.22-.07.44-.14.36.43.21.57.21,1-1.22.08-1.29,1.09-.29,1.37.8.15.51,1.08.58,1.44a14.15,14.15,0,0,0-.65,2.81c.07.87.43,1.73.51,2.59s.21.58,1,.72h0l.15-.07h0c0,.87-2.52,1.66-1.51,2.38.21.29-.72-.15-.22.14.29.29.14,1.08.14,1.44.08.58-.36,2.38.65,2.67-.29.64-.29.72.36,0h0l-.36.86h0c-.29-.14-.36.29-.36.5,0,.58.22,1.3.29,2Zm-18.5-18.94c-.22.07-.44.15-.58.07-1.15.37-.5.58.36.37a4,4,0,0,0,1.66-.15.82.82,0,0,0-.36-.14c-.08-.15-.44-.15-.65-.08s-.15-.07-.29-.07h-.14Zm-.08.72h-.21c-.22.08-.94,0-1.37.08-1.8-.08-.43.5-.43.28a9.37,9.37,0,0,0,2-.14c0-.14.08-.14,0-.22Zm.22,3.39c-.5.14-.86-.15-1.37-.15,0-.21-.79-.36-.79.15,0,.29.07,1.65.07,1.73s.07.07,0,.21c.29.29.15,1.23.15,1.66,0,.79-.44,2.52.28,3.17-.07.07-.07.07,0,.14s0,.07-.07.14c.58.58-.29,1.59.36,2.16-.14.15-.14.58.22.51.72.07.36-.79.36-.94.14,0,.57.07.57-.14.08,0,.29,0,.29-.07h0l.15-.08h0a.41.41,0,0,0,.43,0c.21,0,.5,0,.5-.14a1.14,1.14,0,0,0,1-.22,4.4,4.4,0,0,0-1-.14c0-.29-.21-.36.07-.65,0-.07-.07-.21-.28-.14,0-.79-.44-1.51-.44-2.24s.08-.71,1.73-1c1.23-.29,5.55-.51,4.39-.72-.14,0-.28.07-.36.07-1.29.07-3.52.29-2-.07a10,10,0,0,1,1.51-.15h.07c.43-.21,1.59.08,2.23-.07-.79-.14-2.8,0-3.38-.14-.07.14-.5.14-.79.14s-.36.07-.58.07c.29-.28-.57-.5-.57-.07a.8.8,0,0,1-.8-.07c0-.29,0-.36-.43-.36,0-.07-.21-.14-.36-.14h0V441h0c.58,0-.36-.36-.36,0-.21,0-.36.07-.5.07s.07-.5,0-.57a1,1,0,0,0,0-1c.07-.15-.29-.58-.29-.72ZM196,453.35a2.09,2.09,0,0,0-.93,0h0l-.36-.14h0c-.07.14.14.22.21.36,1.08.22,10.37.07,3.1-.07-.22.07-.07.07-.29,0-.36.14-.93-.07-1.15,0-.43.07-.22-.07-.22-.22a.42.42,0,0,0-.28-.07c0-.51-.36-.29-1.37-.58-.29.51.5.65,1,.51.07.07.36.21.28.21Zm16.71-2.08a3.82,3.82,0,0,0,0,1.58h0l-.22.5h0c.15.15.36-.21.58-.36.36-1.65.07-16.56-.15-4.89.15.29.15.14,0,.43.29.65-.07,1.58.08,1.87,0,.65-.22.29-.51.29a1.44,1.44,0,0,0-.07.5c-.79,0-.43.65-.94,2.16.8.44,1.08-.79.87-1.51.07-.22.36-.72.36-.57Zm.29-16.35c-.29,0-2.52-.07-2.88-.14a1.44,1.44,0,0,0-.58.07c-.65-.15-1.87.14-2.52,0a18.63,18.63,0,0,0-1.94.07c-.29,0-.8.07-1.08.07h0l-.08-.07h0c-.43,0-1,.15-1.36.15h0l-.15-.08-.29.15h0c.58.14,1.66-.07,2.16,0a9.87,9.87,0,0,1,1.44,0h0l.08-.07h0a4.42,4.42,0,0,0,1.36,0,10.29,10.29,0,0,0,2.09.07,34.24,34.24,0,0,1,3.46.57c0,.36.5-.14.5-.36s.07-.28-.21-.43Z" transform="translate(-152.21 -383.73)"/><path class="cls-1" d="M230.54,431.83c-.57-.72-.93,1-.07.72.36-.08.07-.58.07-.72Z" transform="translate(-152.21 -383.73)"/><path class="cls-1" d="M231,432.91a2.55,2.55,0,0,1-.36-.08c-.22.29-.51.51.07.72a.58.58,0,0,0,.29-.64Z" transform="translate(-152.21 -383.73)"/><path class="cls-1" d="M251.42,443.56c0-.36-.57-.21-.79,0-.07.14.07.43.29.36s.65-.22.5-.36Z" transform="translate(-152.21 -383.73)"/><path class="cls-1" d="M251.35,442.48c-.72-.07-.72.43,0,.51.22-.08.43-.22,0-.51Z" transform="translate(-152.21 -383.73)"/><path class="cls-1" d="M252.22,442.62c-.58,0-.58.37-.08.44.22-.07.36-.15.08-.44Z" transform="translate(-152.21 -383.73)"/><path class="cls-1" d="M231.12,434.7c.36.08,1.15-.43,1.44-.57a4.4,4.4,0,0,0,1.08-.22c.58,0,1.3-.5,1.87-.36.36-.07.79,0,1.15-.07a2.63,2.63,0,0,1,.65.14h0l.15-.14h0c-.15-.14.36-.29.36-.43.5,0,1.29.14,1.72.14,0,.29,1.23.8,1.52.72a6.5,6.5,0,0,1,2.3,2.31c.22.65.94-.58,1.22.07a10.62,10.62,0,0,1,.65,1.37c.15.5,1,1.58.65,1.94a5.65,5.65,0,0,1,.79,2.95c-.14,3,1.51-2,2.81-.57.43.43.79.79.79,1.29,0,.8-2.3,1.8-3.31.58-.29.29.65,1.51.65,1.87-.07,0-.65-.93-.51-.36a1.29,1.29,0,0,0,.29.72c.15-.14.51-.07.36-.5h0l.22.21h0a4.45,4.45,0,0,1-1.3,2.67c-.5.57-.07,1.58-.65,2.3-.36.51-1.87,1.66-1.87,2.16-.29,0-1.08.79-1.08.94a2.28,2.28,0,0,0-.43.29c-.07,0-.86-.29-.86.07-.15.07-.87.43-.87.36s-.21,0-.21.07c-.51,0-.8.5-1.52.29a9.3,9.3,0,0,1-2.8.29c-.15.14-.29.07-.58.14-.07,0-.43-.14-.5-.14-1.16.28-2.81-.65-3.89-.72-.36.21-1.23-.36-1.73-.36,0-.15-1.94-1.08-2.16-1.37a22.2,22.2,0,0,1-2.3-2.95c-.36-.51-.08-1.23-.44-1.73-.86-1.37-.64-3.53-.36-5,.36-1.66,1.88-3,1.88-4.68,0-.36.57-1.51,1.29-.79.07-.15.58-.51.58-.72.21,0,1.15-.79,1.08-.94-.65-.72-1.3-1.65.57-1.65a.8.8,0,0,0,.22.07c0,.07-.22.36-.07.43s.86.65.86.07c.07,0,.58-.22.22-.22-.15-.14-.22-.28-.07-.43h.14c.22.15.22.22,0,.43Zm-.29,1.81c.15-.44,3.1-.44,2.81-1s.65-1.3,1.87-.94c.36-.07,1.23-.14,1.59-.21a2.22,2.22,0,0,0-1.8.07c-.15-.07-.22,0-.36-.07a2.9,2.9,0,0,1-1.08.14c-1.08.58-4.11,1.22-4.11,2.23-.36,0-1.22,1.08-1.29,1.23-.51.72-.51,1.65-1.16,2.37-.43.51-1.51,2.38-.93,2.95a1.55,1.55,0,0,0,0,.8c.07-.08.57-.15.57-.29.8.21.44-1.16.29-1.08h0l.07-1.44h0c.08,0,.65-.15.65-.29.36.14.94-.29,1.59-.14,0-.29.64,0,.64-.36.36,0-.07-1.52-.07-1.59a5.67,5.67,0,0,1,.72-2.37Zm-5.11,7.7c0-.58-.29-.79-.79-.07a4.37,4.37,0,0,0-.36,2.52,13.38,13.38,0,0,1,1.15,3.09,5.34,5.34,0,0,0,1.8,1.3c.65,0-.58-1.44-.65-1.58a6.37,6.37,0,0,1-1-3.32c0-.28,0-2-.14-1.94Zm4.54,3.38-.44-.07h0c-.14.07-.57-.07-.86-.07-1.37,0,.36.58.36.29h.58l.36-.15Zm-1.37,1.88-.22-.15h0c-.43.29.15-.57.15-.65.21,0,.14-.21,0-.21-.44.07-.51.5-.87.65-.36-.15-.72,0-.57.21h0l.28-.07h0a1.66,1.66,0,0,0,.44,1.08c.07-.14.5-.43.5-.58h0l.29-.28Zm1-1h0c0-.07-.15-.43-.15-.15a2.64,2.64,0,0,0-.86.08c.07.14.5.43.5.14.22,0,.51.14.51-.07Zm-.44,4.82h0c0-.14-.21-.29-.43-.29,0-.07-1.44-.79-1.73-1.22-.07.22,1.44,1.15,1.44,1.22.65.58-1.51-.72-1.51-1-.29.64,3,2.66,3.46,2-.15-.07-.65-.57-.94-.57,0-.08-.07-.15-.29-.15Zm1.16-.79c-.15-.07-.51-.07-.72-.14-.29.21.28.57.57.72a4.38,4.38,0,0,0,1.3.57h0l.14-.65h0c0-.29-.86-.57-1.29-.5Zm5.11,2.23c-.65.15.86.29.93.29s.29-.29,0-.29a4.13,4.13,0,0,0-.93,0Zm1.29-.65h0a2.24,2.24,0,0,0-.72.15.73.73,0,0,1,.36.14,6.31,6.31,0,0,1,.87-.29.65.65,0,0,0-.51,0Zm2.74.08h0c0-.08.14-.08.14-.15s-.43-.07-.5.07c-.36.36.22.08.36.08Zm4.46-3.46a9.12,9.12,0,0,1-3.31,2.3c-.29,0-.21.22-.21.22.21,0,.79-.14.79-.22a10.51,10.51,0,0,0,2.73-2.3Zm-.79-.65a1.28,1.28,0,0,1-.43.07h0l-.43.15h0c-1.44-.36-1.59,1.36-1.23,1.73a.24.24,0,0,0,.15-.08c.36,0,1.15-.86,1.22-1,.29-.15.87-.65.72-.87Zm-.36,3.1h0a11.37,11.37,0,0,0,1.73-1.87c-.07.14-1.73,1.58-1.73,1.65-.43,0-.79.65,0,.22Zm3.24-4.11a.33.33,0,0,0,0-.36c-.29.29-.5,1-.29,1.3.15.14.36-.14.29-.65,0-.07.07-.21,0-.29Zm-.5-4c-.15.08-.15.15,0,.22-.15.14-.15,1.66.07,1.73a2.23,2.23,0,0,0,.14-.65,2,2,0,0,0-.21-1.3Zm.79-.21c-.07,0-.36.14-.22.36.29.14-.14,1,.22,1.44l.14-.15c.58,0,.29-.79.08-.93a1.23,1.23,0,0,0-.22-.72Zm-5.4-8.43c0-.07-.29-.28-.43-.28-.51.57-.15,1.36-.65,2a12.55,12.55,0,0,0,2.52.65c0,.14,0,.14.14.14s.44.15.36-.14c-.07-.14-.43-.58-.43-.79s-1-1.59-1.51-1.59Zm1.8,1.37a17.23,17.23,0,0,0,.94,1.73c.36-.36,0-.72,0-1.08-.51-.58-1.95-2.09-.94-.65Z" transform="translate(-152.21 -383.73)"/><path class="cls-1" d="M280.15,452.7c0-.07.36-.21.36-.28.36.43-.36.65-.36.28Z" transform="translate(-152.21 -383.73)"/><path class="cls-1" d="M267.34,433.62c-.36-.07-.22-.35-.22-.5a2.83,2.83,0,0,0,1.22.5c.29.15.8,1.23,1,1.45.29,0,.58.14.87.14.07.07.72.58.79.94s1,1.8,1.65,1.8c0-.36,1.3.86,1.73,1.65,0,.29.51.79.65,1.08.36-.36,1.66-1.22,1.66-1.65a.84.84,0,0,0,.36-.15c.64.15.28.65,0,.87-.51.28-1.66,1.44-1.37,1.8,1.58-.87.5.79,1.08,1.44,1.51-.8.43.43.79,1.08.94,1.15,3.53,4.32,2.52,3.81,0-.21-1.3-1.51-1.73-1.51,0-.29-.65-.72-.86-1-.94-1.22-.51-.29,0,.43a18.37,18.37,0,0,0,1.8,2.38c.21.29,1.51,2.23,1.8,2.23,0,.15.72.43.79.58.22.29.22.79.65,1.22.57.65,1.29-.36,2.09.43,1.44,1.44-2.24.94-2.88,1.66-.36-.07-.29-.07-.51,0a.62.62,0,0,1-.14.58c0-1.08-1.73.21.43.21a.62.62,0,0,1-.14,1.08c-.15-.14-.65-.14-.87-.21-.65.28-1,.07-1.44.57.22.22.22.43.43.65.72.72-.86-.5-.57.58a.76.76,0,0,0-.72-.36c0-1.16-3.46-.72-4.75-.65-.58,0-4,0-4-.43.58,0,1.95,0,2.45.07.94,0,1.87-.15,2.81-.15,1.37.08,4.1-.21,3.89-1.22-.07-.58-2.52-.43-3.1-.58-.93.22-2.09.22-2.09.94-.14.22-.5.22-.5-.14.22-.08-.07-.51.07-.8l-.5-.07a6.2,6.2,0,0,0-2.81,0c-.94.22-.5.36-.79.79-.72.87-2-.64-2.67-.79a5.45,5.45,0,0,1-1.51,0,11.59,11.59,0,0,1-1.73.07c-.28-.07-1.08.08-1.36,0a5.29,5.29,0,0,1-4-.43c-.65,1.59-2.31,1.73-2.45.22,0-.22.29-.43.14-.51a3,3,0,0,0-.79-.07c-.43-.14.58-.07,1.15-.07s1.59-1.8,1.59-2.38c.21-.86.21-2.52,1-3.31h0l.15.15h0a1.23,1.23,0,0,0,.72-1.08c0-.51,1.15-1.8.79-2.16a9.9,9.9,0,0,1-1.87,1.08c0-.15,1.58-1.3.5-1.3a3.59,3.59,0,0,0-.21-.5c.21-.22-.36-.29-.36-.08h-.51c0-.21.36-.36.36-.43a5.45,5.45,0,0,0,.58-1.65c1.15,0,.93.57,1.37.93.07,0,.36-.14.36-.22,1.15,0,1.72-1.51,1.72-1.94,0-1.29,1.95-2.66,1.95-3.89,0,0,1.37-.64.79-.07.65.72-1.3,2-.79,2.59,2.37-1.22,1.58-3.31,2.95-4.75a1.51,1.51,0,0,1,.58-.94Zm13.82,18.94h.07c.36,0,1.73.36,1.23-.21-.87-.87-.22-2-2.16-.65,0,.07.28.21.28.29s.22.57.58.57Zm-2.09.43c.94.08.51-.79-.29-1-.64.14-.79.28-.5.64,0,.44.07.36.79.36Zm-.93,0c.28-1.29-2.09-.64-3-.57-.14.21,1.37.36,1.73.36,0,.29,1.3.43,1.3.21Zm-11.67-.29h0a16,16,0,0,1,1.95.08.7.7,0,0,1,.57,0,2.16,2.16,0,0,1,1,0,1.41,1.41,0,0,1,.58,0h0l.14-.08h0c.79,0,3.82.15,4.1-.14-1-.29-2.3.29-3.31,0a7,7,0,0,1-2.09,0c-.14,0-.5.07-.72.07h0l-.14-.07h0a13.53,13.53,0,0,0-2.38.07c.08,0,.22.07.29.07Zm12.67-2.51a10.17,10.17,0,0,1,1.44.28c.15-.28-.93-1.15-1.15-1.36A21.25,21.25,0,0,0,277,446.3c-.21-.22-2.16-1.73-1.51-.87.15.36.65,2.31,1.8,2.31a1.85,1.85,0,0,0,1,.93c0,.29,1,.65.36.94,0,.14.43.43.5.58Zm-20.8,3.45.57.07h.79c.29,0,.51-.21.72,0a5.57,5.57,0,0,0,1.59-.14c.21,0,.29.14.43.14a.62.62,0,0,1,.5,0c.29-.07.72-.07,1-.14h-.36c-1.51-.22,0,0,.58-.14a.3.3,0,0,0,.29.28h0l.07-.07h0a1.42,1.42,0,0,1,.93.07c.22,0,.29-.07.51,0a1.25,1.25,0,0,1,.72,0c.29-.07.65-.14.86-.21a20,20,0,0,0-2-.07c-.29-.15,1.72-.08,1.94-.08h1.3c1.72,0-.44-.43-.44-.14,0-.14-1.29-.07-1.51-.14s-.79,0-1.08.07a6,6,0,0,0-1.58,0c-.15,0-.43-.07-.51-.07s-.43.07-.5.07c0-.72-3.82-1-4.25-.65a8.76,8.76,0,0,0-.57,1.15Zm-.8.22c.29-.36-.07-1.3-.36-1.66a1,1,0,0,0-.36.79,2,2,0,0,0,.72.87Zm.58-2.45a2.24,2.24,0,0,0,.5-.72c0,.14,0,.36.15.43.29-.36.36-.93.65-1.22a1.25,1.25,0,0,0-.51-.36,1,1,0,0,0-.5.72c0,.29-.51.93-.29,1.15Zm7.56-3.1c.22-.07,1.73,0,1.73-.14h0l.07.07h0a7.55,7.55,0,0,0,.79-.36c.94-.5-2,.15-2.52.22-.14.14-.14.14-.07.21Zm-5.62.15a6.92,6.92,0,0,0,1.66-3.46c0-.43.43-2.38-.07-1.22-.43.93-1.51,2.16-1.51,3.09,0,0-.58,1.95-.08,1.59Zm1.8-.87a.68.68,0,0,0-.5.29c.5.15,1.22-.14,1.66,0l.72-.21a1.6,1.6,0,0,0-.87,0c-1-.29-.86,0-.14-.94.93-.94-.65-.94-.65,0,0,.29-.22.65-.22.86Zm1-2.16c.07-.07.58-.14.58-.21.43,0,2.81-1.37,2.16-1.37-1,0-.36-.29-.36-.5.21,0,2.45-.8,1.15-.8-2.16,0-2.95.36-2.95,1.52-.22.21-.79,1.15-.58,1.36ZM260.14,443h0l-.36.21h0c.5.5,1.87-1,.36-.21Zm2.73-1.8c-.29.5.36,1,.51.43s.57-.94.64-1.37c-.21-.14.22-.29.22-.5.29-.44-1,0-1,.36a4,4,0,0,1-.36,1.08Zm2.23-.08h0c-.28.29-.28.72-.64,1,.21.07,1.22-.43,1.22-.65a6.94,6.94,0,0,0,2.23-.64c-.5-.22-2.81-.15-2.81.28Zm4.83-3.09h0c0,.29,2,1.8,1.29.93-.14-.14-1.29-1.51-1.29-.93Zm1,3h0c-.22.07-.29.22-.15.29s.51.14.72,0c.51,0,.58.29.94.36a3.43,3.43,0,0,0-.72-1,4.23,4.23,0,0,1-.79.36Zm1.08-.43h0c.21.21.57.79.86.93.29-.28-.36-.93-.58-1.22-.21.14-.28.14-.28.29Zm.43,1.51h0c-.36.14-.22.36.14.22.58-.22-.07-.8-.14-.22Zm2.37,1.58c.22-.21-.5-1.08-.72-1h0l-.28-.35h0c-.15.14.21.43.21.57.22.22.36.58.79.79Z" transform="translate(-152.21 -383.73)"/><path class="cls-1" d="M266.69,457.89c.21.29.5,1.37,1.08,1.37,0-.87,1.29-1.08.43-2-.58-.36-1.22.07-1.87.15,0,.36.36.21.65.28-.22.08-.29.15-.29.22Z" transform="translate(-152.21 -383.73)"/><path class="cls-1" d="M263.66,455.73c0,.72,1.23.5,1.52.36a.8.8,0,0,1,.07-.22c-.07-.14-.22-.14-.36-.14-.43.43-.22-.29-.22-.58-.43-.14-1.08-.14-1,.58Z" transform="translate(-152.21 -383.73)"/><path class="cls-1" d="M255.6,449.54l.22.14c.07,0,.21.07.21.15.29-.36.51-1.08-.29-1.3,0,.36-.43.65-.14,1Z" transform="translate(-152.21 -383.73)"/><path class="cls-1" d="M280.58,448.46c0,.21.22.36.22.57,1.66,0-.22-1.87-.22-.57Z" transform="translate(-152.21 -383.73)"/><path class="cls-1" d="M260.14,453.28c.5,0,3.38.36,2.08.07h0l-2.66-.36h0c0,.22.22.29.58.29Z" transform="translate(-152.21 -383.73)"/><path class="cls-1" d="M260.78,440.61c.15-.07,1.16-.43,1.08-.58a5.94,5.94,0,0,0-1.58.65,3.51,3.51,0,0,1-.5.22h0v.29h0a4.67,4.67,0,0,0,1-.58Z" transform="translate(-152.21 -383.73)"/></svg>