<?xml version="1.0" encoding="utf-8"?>
<!-- Generator: Adobe Illustrator 23.0.3, SVG Export Plug-In . SVG Version: 6.00 Build 0)  -->
<svg version="1.1" id="Layer_1" xmlns="http://www.w3.org/2000/svg" xmlns:xlink="http://www.w3.org/1999/xlink" x="0px" y="0px"
	 viewBox="0 0 481.5 103" style="enable-background:new 0 0 481.5 103;" xml:space="preserve" class="header_shadow">
<style type="text/css">
	.st0{fill:#FFFFFF;}
	.st1{fill:url(#SVGID_1_);}
	.st2{fill:#F8BD1E;}
  .header_shadow {
  -webkit-filter: drop-shadow( 1px 1px 1px rgba(0, 0, 0, 1));
  filter: drop-shadow( 1px 1px 1px rgba(0, 0, 0, 1));
</style>
<g>
	<path class="st0" d="M163.9,36.4l-19.6-2.2l-2.5,19.5l18.3,2.5l-1,8.3L141,62.9l-2,23.4l21.4,1.9l-0.7,8.4l-45.2-4l4.7-73.1
		l46.1,5.8L163.9,36.4z"/>
	<path class="st0" d="M167.8,77.7l10.9-71.3l26.7,3.4l-15.9,72.8L167.8,77.7z"/>
	<path class="st0" d="M275.8,63.2l-37.6-4.6l-0.4,0.8l-1,2.5l-0.8,3.1l-0.7,4.6v4.3c0,1.9,0.2,3.3,0.5,4.2c0.6,2.4,2.1,4.3,4.6,5.8
		c0.9,0.4,1.7,0.6,2.5,0.6c0.8,0,1.6-0.2,2.4-0.5c1.8-0.7,3.2-1.9,4.2-3.6l1.3-3l1-3.4c0.3-1.1,0.5-2.5,0.5-4.2v-1.6L273,71
		l-0.3,1.8l-1,3.6c-1,3.4-2.6,6.2-4.6,8.6c-0.7,0.8-1.8,1.6-3.4,2.4l-3.9,1.1l-5.5,0.8l-6.2,0.2h-8.4c-2.1,0-4.3-0.2-6.4-0.6
		c-2.2-0.4-4.8-1.1-7.8-2.1c-4.6-1.3-8.2-3.9-10.7-7.9c-1.6-2.6-2.9-6.4-3.7-11.4l-0.3-5.8c0-2.2,0.2-4.5,0.6-7.1l0.6-3.5
		c0.2-1.6,0.5-2.9,0.9-3.9c0.7-2.7,1.5-4.7,2.4-6c3.7-5.4,8.3-8.9,14-10.6c2.4-0.7,5-1.2,7.8-1.4l6.1-0.5h3.2c1.5,0,2.6,0,3.4,0.1
		c0.8,0.1,1.4,0.2,1.7,0.2s0.9,0.3,1.8,0.6l2.1,0.5l2.4,0.8c3.8,1.1,7.3,2.8,10.4,5.1c1.8,1.4,3.4,2.9,4.8,4.7
		c0.9,1,1.7,3.1,2.4,6.4l0.4,4.7l0.1,3.3l-0.1,4L275.8,63.2z M250.5,51.5l0.3-4.4l0.3-7.7c0-1.3-0.5-2.3-1.6-3
		c-1.1-0.8-2.4-1.4-4.1-1.9c-1.8,0-3,0.2-3.6,0.5c-1,0.2-1.8,0.7-2.5,1.6c-1.4,1.6-2.1,3.6-2.1,6.2v8.9L250.5,51.5z"/>
	<path class="st0" d="M327.7,20.1l-20.8,3.7l3.5,19.6l17.7-2.2l1.4,7.7l-17.6,3.1l0.7,5.1l1.6,11.3l1.7,11.2l0.8,5L293.9,89
		l-15.1-73.4L326.3,9L327.7,20.1z"/>
	<path class="st0" d="M378.9,88.3l-1-1.6l-0.6-1.2l-4.3,2.1l-7.2,2.9c-2.6,0.6-6.4,1.3-11.3,2.1h-1.2h-0.9c-3,0-5.7-0.7-8.2-2
		c-1.1-0.6-2-1.6-2.6-3.2l-1.5-4.9l-1.1-4.7l-0.9-4.9l-1.5-9.8l-2.2-12.9c-0.7-5.1-1.5-9.5-2.3-13l22.3-2.8l8.8,45.7
		c0.2,1.2,1.2,2.1,3,2.7l0.8,0.1h0.5l2-0.1c0.5,0,1.4-0.3,2.6-0.7c1.3-0.5,2.5-1.3,3.5-2.4s1.5-2.6,1.4-4.5l-9-45.7l1-0.4l1.8-0.6
		l7.1-1.5l8.7-1.8c0.9,0,1.5-0.1,1.8-0.2l2.1-0.6l4-1l8.9,61L378.9,88.3z"/>
	<path class="st0" d="M468.3,23.8L477,75l-23.5,3.2l-8.1-46c-0.4-1.7-1.4-2.8-3-3.4l-3.1-0.5l-2.6,0.3c-1.2,0.2-2.6,1-4,2.3
		c-0.5,0.5-1,1.2-1.4,2c-0.4,0.8-0.6,1.8-0.6,2.9l8,45.4l-22.4,4.1l-11.2-58l26.4-6.1l0.1,2.1l0.3,2.1c0.7-1.7,2.7-3.3,5.9-4.8
		c1.4-0.7,3-1.3,4.7-1.9c1.7-0.6,3.5-1.1,5.4-1.6l3.5-0.4h1.9h1.7h1.7c1.1,0,2.4,0.2,3.9,0.5s2.8,0.9,4,1.5
		C466.2,20,467.5,21.7,468.3,23.8z"/>
</g>
<g>
		
    <defs>
    <linearGradient id="planegrad" gradientTransform="rotate(80)">
      <stop offset="20%"  stop-color="#f8bd1e" />
      <stop offset="40%"  stop-color="#fdfc9c" />
      <stop offset="60%" stop-color="#f8bd1e" />
    </linearGradient>
  </defs>
		<path class="st1" d="M19.5,58.9c1.4-1.4,2.9-2.8,4.3-4.2c-0.6-0.7-1.1-0.8-1.6-0.9c-1.5-0.1-2.2-1-2.8-2.3
			c-1.2-2.9-2.5-5.8-3.9-8.6c-0.4-0.8-0.1-1,0.5-1.3c2-0.8,4.1-1.6,6.1-2.5c0.4-0.2,0.7-0.3,1.1,0.2c2.4,3.1,4.8,6.2,7.2,9.2
			c0.4,0.5,0.8,1,1.2,1.5c0,0.1,0.1,0.1,0.2,0.2c0.4,0.4,4,0.8,4.5,0.5c4.4-2.9,9.1-5.2,13.7-7.6c0.4-0.2,0.8-0.5,1.2-0.7
			c1.8-1,1.7-1,1.1-3c-2.4-7.5-4.8-15-7.2-22.5c-1.2-3.9-2.4-7.8-3.7-11.6c-0.3-0.8-0.2-1.1,0.8-1.3c1.8-0.3,3.5-0.8,5.3-1.3
			c1.1-0.4,1.8,0,2.5,0.8c1.2,1.5,2.3,2.9,3.5,4.4c2.7,3.4,5.4,6.8,8.1,10.3c2.5,3.2,5,6.5,7.6,9.7c0.8,1.1,1.7,2.2,2.5,3.3
			c0.4,0.5,0.7,0.3,1,0.1c1.8-1,3.7-2.1,5.6-2.9c3.1-1.4,5.2-1.1,7.2,0.9c2,1.9,2.2,6.5-0.6,8.6c-1.9,1.4-4,2.1-6.1,2.9
			c-0.6,0.2-0.6,0.5-0.3,0.9c1.8,3.4,3.7,6.7,5.5,10.1c1.4,2.5,2.8,4.9,4.1,7.4c2.2,4,4.1,8,6.2,12c0.8,1.5,0.5,2.5-0.7,3.5
			c-1.6,1.2-3.2,2.4-4.8,3.7c-0.4,0.3-0.8,0.3-1.2-0.1c-2.2-1.9-4.2-4-6.2-6c-4.5-4.5-8.8-9-13.4-13.3c-3.2-3-6.3-6.2-9.4-9.3
			c-0.7-0.7-1.2-0.9-2.2-0.5c-6.5,2.4-13,4.7-19.5,7c-0.8,0.3-0.9,0.7-0.6,1.4c1.7,4.1,3.1,8.2,4.8,12.3c0.4,0.9,0.3,1.5-0.5,2
			c-1.4,0.9-2.8,1.9-4.2,2.9c-0.5,0.3-0.6,0.4-1-0.1c-2.4-3.4-4.6-6.7-7-10c-0.4-0.6-0.6-1.1-0.3-1.8c0.4-1.2,0.6-2.5,0.9-3.7
			c0.1-0.5,0.3-0.8-0.6-0.7C25.1,58.4,22.3,58.6,19.5,58.9z"  style="fill: url('#planegrad');"/>
		<path class="st2" d="M0.5,20.8h41c0.2,0,0.4,0.1,0.5,0.3l5.4,18.2c0.1,0.2,0,0.5-0.2,0.6l-10.8,5.9c-0.1,0-0.2,0.1-0.3,0.1
			l-2.4-0.2c-0.1,0-0.3-0.1-0.3-0.2l-9.1-11.2c-0.1-0.2-0.4-0.2-0.6-0.1l-13,5.2c-0.4,0.2-0.6,0.7-0.5,1.2l5.9,15.3
			c0.1,0.2,0,0.3,0,0.5l-3.8,5.8c-0.7,1,1,1,0.4,1l9.5-0.9c0.3,0,0.5,0.2,0.5,0.5l0,2.6c0,0.1-0.2,0.2-0.1,0.3L34,80.5
			c0.2,0.2,0.5,0.3,0.7,0.1l11.6-8.4c0.2-0.1,0.2-0.4,0.2-0.6l-4.7-12.4c-0.1-0.3,0-0.5,0.3-0.6l13.6-4.8c0.2-0.1,0.4,0,0.5,0.1
			l12.5,12.1c0.1,0.1,0.4,0.4,0.4,0.6l0,27.3c0,0.3-0.2,0.5-0.5,0.5H0.5c-0.3,0-0.5-0.2-0.5-0.5V21.3C0,21,0.2,20.8,0.5,20.8z"/>
	</g>
</svg>
