<svg id="e2419zfkse2p1" xmlns="http://www.w3.org/2000/svg" xmlns:xlink="http://www.w3.org/1999/xlink" viewBox="0 0 240 70" shape-rendering="geometricPrecision" text-rendering="geometricPrecision"><style><![CDATA[#e2419zfkse2p12 {animation: e2419zfkse2p12_c_o 2000ms linear 1 normal forwards}@keyframes e2419zfkse2p12_c_o { 0% {opacity: 0} 15% {opacity: 0} 25% {opacity: 1} 100% {opacity: 1} }#e2419zfkse2p14 {animation: e2419zfkse2p14_c_o 2000ms linear 1 normal forwards}@keyframes e2419zfkse2p14_c_o { 0% {opacity: 0} 20% {opacity: 0} 30% {opacity: 1} 100% {opacity: 1} }#e2419zfkse2p16 {animation: e2419zfkse2p16_c_o 2000ms linear 1 normal forwards}@keyframes e2419zfkse2p16_c_o { 0% {opacity: 0} 25% {opacity: 0} 35% {opacity: 1} 100% {opacity: 1} }#e2419zfkse2p18 {
           animation-name: e2419zfkse2p18_c_o, e2419zfkse2p18_f_o;
           animation-duration: 2000ms;
           animation-fill-mode: forwards;
           animation-timing-function: linear;
           animation-direction: normal;
           animation-iteration-count: 1;  
        }@keyframes e2419zfkse2p18_c_o { 0% {opacity: 1} 30% {opacity: 1} 40% {opacity: 1} 100% {opacity: 1} }@keyframes e2419zfkse2p18_f_o { 0% {fill-opacity: 0} 30% {fill-opacity: 0} 40% {fill-opacity: 1} 100% {fill-opacity: 1} }#e2419zfkse2p19 {animation: e2419zfkse2p19_c_o 2000ms linear 1 normal forwards}@keyframes e2419zfkse2p19_c_o { 0% {opacity: 0} 35% {opacity: 0} 47% {opacity: 1} 100% {opacity: 1} }#e2419zfkse2p20 {animation: e2419zfkse2p20_c_o 2000ms linear 1 normal forwards}@keyframes e2419zfkse2p20_c_o { 0% {opacity: 0} 40% {opacity: 0} 50% {opacity: 1} 100% {opacity: 1} }#e2419zfkse2p21_to {animation: e2419zfkse2p21_to__to 2000ms linear 1 normal forwards}@keyframes e2419zfkse2p21_to__to { 0% {transform: translate(20px,23px)} 15% {transform: translate(20px,23px)} 25% {transform: translate(89.500000px,23px)} 100% {transform: translate(89.500000px,23px)} }#e2419zfkse2p21_tr {animation: e2419zfkse2p21_tr__tr 2000ms linear 1 normal forwards}@keyframes e2419zfkse2p21_tr__tr { 0% {transform: rotate(0deg)} 55% {transform: rotate(0deg);animation-timing-function: cubic-bezier(0.785000,0.135000,0.150000,0.860000)} 65% {transform: rotate(180deg)} 79% {transform: rotate(180deg);animation-timing-function: cubic-bezier(0.445000,0.050000,0.550000,0.950000)} 90% {transform: rotate(360deg)} 100% {transform: rotate(360deg)} }]]></style><g id="e2419zfkse2p2" transform="matrix(1 0 0 1 106.27496500000001 40.48570100000001)"><g id="e2419zfkse2p3" transform="matrix(1 0 0 1 -118 -1466)"><g id="e2419zfkse2p4" transform="matrix(1 0 0 1 118 1466)"><g id="e2419zfkse2p5" transform="matrix(1 0 0 1 0 8)"/><g id="e2419zfkse2p6" transform="matrix(1 0 0 1 39 8)"/><g id="e2419zfkse2p7" transform="matrix(1 0 0 1 109 0)"/><g id="e2419zfkse2p8" transform="matrix(1 0 0 1 74 8)"/></g></g></g><g id="e2419zfkse2p9" transform="matrix(1 0 0 1 0.14200592000000 -0.57371139500000)"><g id="e2419zfkse2p10" transform="matrix(1 0 0 1 10 10)"><g id="e2419zfkse2p11"><g id="e2419zfkse2p12" transform="matrix(1 0 0 1 0 8)" opacity="0"><path id="e2419zfkse2p13" d="M214.248397,23.528063C214.248397,17.147633,210.301365,13.420693,205.113314,13.420693C199.756076,13.420693,196.034465,17.599074,196.034465,23.528063C196.034465,29.682773,199.756076,33.635919,205.169548,33.635919C210.808682,33.635919,214.248397,29.118351,214.248397,23.528063M190,23.584676C190,14.437043,195.808561,8,204.041963,8C209.681097,8,212.725964,11.500733,213.684846,13.025379L214.079452,13.025379L214.079452,8.734017L220,8.734017L220,38.265983L214.192404,38.265983L214.192404,34.087360L213.853790,34.087360C213.064577,35.216448,210.188655,39,204.323376,39C195.865520,39,190,32.732065,190,23.584676" transform="matrix(1 0 0 1 -190.28401199999996 -8.10321320000000)" fill="rgb(0,81,90)" fill-rule="evenodd" stroke="none" stroke-width="1"/></g><g id="e2419zfkse2p14" transform="matrix(1 0 0 1 39 8)" opacity="0"><path id="e2419zfkse2p15" d="M23.913432,15.533089C23.913432,9.447989,20.268552,5.539553,14.829192,5.539553C9.221832,5.539553,5.857272,10.006028,5.857272,15.533089C5.857272,21.841358,9.782472,25.581877,14.941512,25.581877C20.268552,25.581877,23.913432,21.395022,23.913432,15.533089L23.913432,15.533089ZM0.137352,0.961855L5.857272,0.961855L5.857272,5.148950L6.249672,5.148950C7.034712,3.976659,9.838392,0.236140,15.670152,0.236140C24.137592,0.236140,29.913672,6.433184,29.913672,15.477117C29.913672,24.521290,24.137592,30.885531,16.006872,30.885531C10.343112,30.885531,7.315032,27.480123,6.361752,25.916749L6.025272,25.916749L6.025272,43L0.137352,43L0.137352,0.961855Z" fill="rgb(0,81,90)" fill-rule="evenodd" stroke="none" stroke-width="1"/></g><g id="e2419zfkse2p16" transform="matrix(1 0 0 1 109 0)" opacity="0"><path id="e2419zfkse2p17" d="M5.518530,28.553515L5.518530,13.309706L0.226241,13.309706L0.226241,8.528725L4.111542,8.528725C5.124554,8.528725,5.856602,7.797285,5.856602,6.616139L5.856602,0.147425L11.430337,0.147425L11.430337,8.472330L19.987928,8.472330L19.987928,13.309706L11.430337,13.309706L11.430337,28.384572C11.430337,31.197056,12.612506,32.884546,15.708892,32.884546L19.706241,32.884546L19.706241,37.890865L14.808169,37.890865C9.009133,37.890865,5.518530,34.684343,5.518530,28.553515" fill="rgb(0,81,90)" fill-rule="evenodd" stroke="none" stroke-width="1"/></g><path id="e2419zfkse2p18" d="M157.166678,20.817960C156.773436,15.848950,153.183607,12.969009,148.640203,12.969009C144.152977,12.969009,140.451033,16.187652,140.002335,20.817960L157.166678,20.817960ZM134,23.584676C134,14.211322,140.282261,8,148.640203,8C157.783428,8,163,14.776231,163,23.189361L163,25.391654L139.889740,25.391654C140.114689,30.530258,143.535746,34.030991,148.920610,34.030991C152.622794,34.030991,155.820342,32.224012,156.998386,29.344557L162.719353,29.344557C161.204965,35.047340,155.988394,39,148.752558,39C139.945677,39,134,32.450218,134,23.584676L134,23.584676Z" fill="rgb(0,81,90)" fill-opacity="0" fill-rule="evenodd" stroke="none" stroke-width="1"/><path id="e2419zfkse2p19" d="M170,9.055486L175.840239,9.055486L175.840239,14.091634L176.244635,14.091634C177.170243,11.767167,180.060911,9,184.340486,9L187,9L187,14.645305L184.166749,14.645305C179.020716,14.645305,176.071641,18.352880,176.071641,23.721469L176.071641,38L170,38L170,9.055486Z" opacity="0" fill="rgb(0,81,90)" fill-rule="evenodd" stroke="none" stroke-width="1"/><path id="e2419zfkse2p20" d="M214.248397,23.528063C214.248397,17.147633,210.301365,13.420693,205.113314,13.420693C199.756076,13.420693,196.034465,17.599074,196.034465,23.528063C196.034465,29.682773,199.756076,33.635919,205.169548,33.635919C210.808682,33.635919,214.248397,29.118351,214.248397,23.528063M190,23.584676C190,14.437043,195.808561,8,204.041963,8C209.681097,8,212.725964,11.500733,213.684846,13.025379L214.079452,13.025379L214.079452,8.734017L220,8.734017L220,38.265983L214.192404,38.265983L214.192404,34.087360L213.853790,34.087360C213.064577,35.216448,210.188655,39,204.323376,39C195.865520,39,190,32.732065,190,23.584676" opacity="0" fill="rgb(0,81,90)" fill-rule="evenodd" stroke="none" stroke-width="1"/><g id="e2419zfkse2p21_to" transform="translate(20,23)"><g id="e2419zfkse2p21_tr" transform="rotate(0)"><g id="e2419zfkse2p21" transform="translate(-15.500000,-15)"><path id="e2419zfkse2p22" d="M31,15C31,23.284152,24.060478,30,15.499880,30C6.939763,30,0,23.284152,0,15L31,15Z" fill="rgb(0,81,90)" fill-rule="evenodd" stroke="none" stroke-width="1"/><path id="e2419zfkse2p23" d="M31,15L0,15C0,6.715848,6.939763,0,15.499880,0C24.060478,0,31,6.715848,31,15" fill="rgb(222,135,143)" fill-rule="evenodd" stroke="none" stroke-width="1"/></g></g></g></g></g></g></svg>