<svg version="1.2" baseProfile="tiny-ps" xmlns="http://www.w3.org/2000/svg" viewBox="0 0 826 115" width="460" height="64">
	<title>Farmasiet</title>
	<style>
		tspan { white-space:pre }
		.shp0 { fill: #dc143c } 
	</style>
	<g id="Layer_2">
		<g id="Ny_logo">
			<path id="Layer" fill-rule="evenodd" class="shp0" d="M118 3.88L165.18 112.59L143.38 112.59L135.09 92.72L95.24 92.72L87.24 112.59L66.52 112.59L112.86 3.19L117.72 3.19L118 3.88ZM127.66 74.53L115.2 43.39L102.5 74.53L127.66 74.53Z" />
			<path id="Layer" class="shp0" d="M65.2 22.19L65.17 3.19L0 3.19L0 112.59L20.97 112.59L20.97 71.51L60.71 71.51L60.71 52.4L20.97 52.4L20.97 22.19L65.2 22.19L65.2 22.19Z" />
			<path id="Layer" fill-rule="evenodd" class="shp0" d="M232.85 78.8L256 112.51L231.59 112.51L212.9 85.09C212.27 85.16 211.63 85.23 211 85.28C210.36 85.34 209.72 85.39 209.09 85.43C208.45 85.47 207.81 85.5 207.17 85.52C206.54 85.55 205.9 85.56 205.26 85.57L197.72 85.57L197.72 112.52L177 112.52L176.74 3.19L205.23 3.19C234.93 3.19 252.66 18.68 252.66 44.61C252.66 60.59 246 72.09 232.85 78.8ZM231.34 44.68C231.34 29.35 222.83 22.2 204.55 22.2L197.63 22.2L197.63 66.93L204.56 66.93C205.4 66.94 206.24 66.93 207.07 66.9C207.91 66.86 208.75 66.81 209.58 66.74C210.42 66.66 211.25 66.57 212.08 66.46C212.91 66.34 213.74 66.21 214.56 66.05C226 63.71 231.39 56.92 231.34 44.68Z" />
			<path id="Layer" class="shp0" d="M606.17 3.26L627.07 3.26L627.07 112.74L606.17 112.74L606.17 3.26Z" />
			<path id="Layer" class="shp0" d="M333.97 58.32L298.73 3.31L279.14 3.31L279.14 112.48L300.1 112.48L300.1 45.05L324.62 84.53L343.28 84.53L366.18 46.16L366.29 112.48L387.2 112.48L387.2 3.31L367.5 3.31L333.97 58.32L333.97 58.32Z" />
			<path id="Layer" fill-rule="evenodd" class="shp0" d="M453.08 4L500.14 112.41L478.4 112.41L470.13 92.59L430.39 92.59L422.39 112.41L401.73 112.41L447.94 3.3L452.79 3.3L453.08 4ZM462.71 74.45L450.27 43.39L437.61 74.45L462.71 74.45Z" />
			<path id="Layer" class="shp0" d="M678.11 93.94L678.09 71.73L718.05 71.73L718.06 52.6L678.12 52.6L678.16 22.35L723.43 22.35L723.43 3.41L657.12 3.41L657.12 112.59L723.51 112.56L723.47 93.91L678.11 93.94L678.11 93.94Z" />
			<path id="Layer" class="shp0" d="M741.1 3.19L741.1 22.14L772.66 22.14L772.7 112.47L793.48 112.47L793.48 22.14L822.79 22.14L825.08 22.11L825.08 3.19L741.1 3.19L741.1 3.19Z" />
			<path id="Layer" class="shp0" d="M571.09 56.57C566.84 53.12 561.31 49.93 553.66 46.57L546.72 43.42C545.93 43.1 545.14 42.77 544.36 42.41C543.59 42.05 542.82 41.67 542.06 41.27C541.31 40.87 540.56 40.45 539.83 40.01C539.09 39.57 538.37 39.12 537.66 38.64C536.94 38.15 536.29 37.56 535.72 36.9C535.15 36.24 534.67 35.5 534.29 34.72C533.91 33.93 533.63 33.1 533.46 32.24C533.3 31.39 533.24 30.51 533.3 29.64C533.28 28.98 533.33 28.32 533.45 27.68C533.56 27.03 533.75 26.4 534 25.79C534.25 25.18 534.56 24.6 534.93 24.06C535.31 23.52 535.73 23.01 536.21 22.56C536.33 22.45 536.44 22.35 536.56 22.25C536.68 22.15 536.81 22.05 536.93 21.96C537.06 21.86 537.19 21.77 537.31 21.68C537.44 21.6 537.58 21.51 537.71 21.43C538.24 21.13 538.79 20.86 539.35 20.64C539.92 20.41 540.5 20.23 541.09 20.08C541.68 19.93 542.28 19.83 542.89 19.76C543.49 19.7 544.1 19.67 544.71 19.69C549 19.69 552.19 20.69 554.77 22.69C555.27 23.13 555.74 23.58 556.2 24.06C556.66 24.53 557.1 25.03 557.52 25.54C557.94 26.05 558.34 26.57 558.71 27.12C559.09 27.66 559.44 28.22 559.77 28.79L560.97 30.92L578.16 20.37L577.04 18.37C576.45 17.28 575.81 16.21 575.11 15.19C574.42 14.16 573.66 13.17 572.86 12.22C572.06 11.28 571.21 10.37 570.31 9.51C569.41 8.66 568.47 7.85 567.49 7.09C561.38 2.35 553.78 0 544.21 0C535.74 0 528.4 2.42 522.87 6.61C515.95 11.84 511.87 19.89 511.87 29.55C511.87 40.86 516.09 49.18 525.12 55.73C526.19 56.49 527.27 57.23 528.38 57.93C529.49 58.64 530.61 59.31 531.76 59.95C532.9 60.59 534.06 61.21 535.24 61.78C536.42 62.36 537.61 62.91 538.82 63.42L545.88 66.56C546.86 66.96 547.83 67.38 548.78 67.83C549.74 68.28 550.68 68.75 551.61 69.26C552.54 69.76 553.46 70.28 554.36 70.83C555.26 71.38 556.15 71.96 557.02 72.56C557.79 73.12 558.5 73.78 559.11 74.51C559.73 75.24 560.25 76.05 560.67 76.91C561.08 77.77 561.39 78.68 561.59 79.61C561.79 80.55 561.87 81.5 561.83 82.46C561.83 88.06 558.03 92.26 551.91 93.93C551.4 94.06 550.89 94.18 550.37 94.28C549.85 94.38 549.33 94.47 548.81 94.53C548.28 94.6 547.76 94.65 547.23 94.68C546.7 94.71 546.18 94.72 545.65 94.72C539.65 94.72 534.88 93.25 530.96 90.22C528.36 88.09 523.58 81.54 523.15 80.91L521.93 79L506.17 87.7L504.24 88.83L505.24 90.83C505.95 92.31 506.75 93.74 507.64 95.12C508.52 96.49 509.49 97.82 510.54 99.08C511.58 100.34 512.7 101.54 513.89 102.67C515.08 103.8 516.33 104.85 517.65 105.83C525.39 111.76 535.07 114.83 546.42 114.83C548.27 114.87 550.11 114.79 551.95 114.6C553.78 114.41 555.6 114.1 557.4 113.69C559.2 113.27 560.97 112.74 562.7 112.11C564.44 111.47 566.13 110.73 567.77 109.89C568.46 109.52 569.13 109.13 569.78 108.71C570.44 108.3 571.08 107.85 571.7 107.39C572.33 106.92 572.93 106.44 573.52 105.93C574.11 105.41 574.67 104.88 575.22 104.33C580.71 98.77 583.6 91.33 583.6 82.84C583.59 71.63 579.62 63.3 571.09 56.57Z" />
		</g>
	</g>
</svg>