<?xml version="1.0" encoding="UTF-8"?>
<svg id="Layer_1" data-name="Layer 1" xmlns="http://www.w3.org/2000/svg" version="1.1" viewBox="0 0 1026.1 434.4">
  <defs>
    <style>
      .cls-1 {
        fill: #f4f4f4;
      }

      .cls-1, .cls-2 {
        stroke-width: 0px;
      }

      .cls-2 {
        fill: #000;
      }

      .cls-3 {
        display: none;
      }
    </style>
  </defs>
  <g id="Layer_1-2" data-name="Layer 1" class="cls-3">
    <path class="cls-2" d="M651.3,173.3c-28.5-43.7-85-59.4-131.9-36.6-14.8-17.5-35.1-29.5-57.5-34.3-38.9-8.2-79.1,6.7-103.4,38.2h30.9c14.4-11.7,32.4-18.1,51-18.2,5.7,0,11.3.6,16.9,1.8,20.3,4.3,38.1,16.1,49.9,33.2l6,8.6,8.9-5.4c38.4-23.4,88.4-11.3,111.8,27,10.8,17.7,14.4,38.9,10.2,59.2-.6,3-1.5,5.9-2.4,8.8l-.2.9c0,.5-1.2,4.8-5.5,12.4-.3.6-.7,1.3-1.1,1.9l-.5.8c-.3.6-.7,1.1-1.2,1.9-.9,1.4-1.8,2.8-2.7,4.1v.2c-35.8,51.7-115.8,92.7-164.9,114.2-17.5-19.1-29.2-32.8-41.5-49.1h-27.5c15.7,22.2,32.7,42.9,58.1,70l5.3,5.7,7.2-3c111.4-47.4,160.2-94.2,181.5-125,1.3-1.8,2.4-3.5,3.4-5.2.5-.8,1-1.6,1.5-2.3l.4-.7c.5-.9,1.1-1.8,1.5-2.6,3.2-5.4,5.7-11.2,7.4-17.3,1.2-3.6,2.2-7.2,3-10.9,5.8-27.2.5-55.3-14.6-78.3h0Z"/>
    <path class="cls-2" d="M101.7,199.8c-7.5,0-14.8,2.2-21,6.5-3.3,2.3-6.3,4.9-8.9,8-2.6-3-5.6-5.7-8.8-8-6.1-4.3-13.4-6.5-20.9-6.5-12,0-22.1,5.1-30.2,15.2C4.1,224.8-.1,237,0,249.6v91h24.5v-91.2c-.3-5.7,1.6-11.3,5.3-15.7,3.5-4.2,7.6-6.3,12.3-6.3s8.6,2.1,12.1,6.3c3.7,4.5,5.6,10.1,5.4,15.9v91h24.5v-91.7c.2-6.2,2-11.2,5.6-15.4,3.4-4.1,7.3-6.1,12-6.1s8.4,2,11.9,6.2,5.3,9.2,5.5,15.3v91.7h24.6v-91c.1-13.4-3.9-25.1-11.9-34.7-8.3-10-18.4-15.1-30.1-15.1ZM211,199.8c-14.7,0-27.4,6.3-37.9,18.9-10.1,12.1-15.3,26.9-15.3,43.8v17.6c0,17.1,5.1,31.9,15.3,44l.3.3c10.4,11.1,23.1,16.8,37.6,16.8s28.1-6.1,38.6-18.2l4.1-4.7-17-20.4-5,6.4c-5.9,7.5-12.6,11.1-20.6,11.1s-14.1-3.2-20-9.9c-4.8-5.8-7.8-12.9-8.4-20.4h81.6v-22.6c0-17.2-5.2-32-15.5-44-10.5-12.4-23.2-18.7-37.8-18.7ZM211,227.4c7.7,0,14.2,3.3,19.8,10.1,4.8,5.6,7.8,12.6,8.4,20h-56.7c.7-7.4,3.6-14.4,8.5-20,5.7-6.8,12.2-10.1,20-10.1h0ZM355.3,210.3c-1.7-1.3-3.4-2.6-5.3-3.7-6.9-4.4-15-6.8-23.2-6.8-14.8,0-27.5,6.3-37.9,18.7-10.1,12.1-15.3,26.9-15.3,44v17.7c0,17.1,5.1,31.9,15.3,44l.3.3c10.4,11.1,23.1,16.8,37.6,16.8s27.1-5.6,37.6-16.8l.3-.3c10.1-12.1,15.3-26.9,15.3-44v-120.4h-24.6v50.5ZM355.3,280.1c0,10.1-2.9,18.4-8.7,25.4-5.5,6.6-12,9.9-19.8,9.9s-14.3-3.3-19.9-10.1c-5.9-7-8.7-15.3-8.7-25.2v-17.7c0-9.9,2.9-18.1,8.7-25,5.7-6.8,12.2-10.1,19.9-10.1s14.2,3.3,19.8,10.1c5.9,6.9,8.7,15.1,8.7,25v17.7ZM756.4,212c-1.7-1.3-3.4-2.6-5.3-3.7-6.9-4.4-15-6.8-23.2-6.8-14.8,0-27.5,6.3-37.9,18.7-10.1,12.1-15.3,26.9-15.3,44v17.6c0,17.1,5.1,31.9,15.3,44l.3.3c10.4,11.1,23.1,16.8,37.6,16.8s27.1-5.7,37.5-16.8l.3-.3c10.1-12.1,15.3-26.9,15.3-44v-120.4h-24.5v50.6h0ZM756.4,281.9c0,10.1-2.9,18.4-8.7,25.4-5.5,6.6-12,9.9-19.8,9.9s-14.3-3.3-19.9-10.1c-5.9-7-8.7-15.3-8.7-25.2v-17.7c0-9.9,2.8-18.1,8.7-25,5.7-6.8,12.2-10.1,19.9-10.1s14.2,3.3,19.8,10.1c5.9,6.9,8.7,15.1,8.7,25v17.7Z"/>
    <path class="cls-2" d="M849.4,272.9l57.8-69h-33.8l-53.7,64.3v-106.7h-24.5v180.9h24.5v-33.8l12.9-15.5,41.2,49.3h33.8l-58.2-69.5Z"/>
    <circle class="cls-2" cx="657" cy="332.7" r="10.8"/>
    <path class="cls-2" d="M464.1,265.1c5.2-5.5,9.9-11.5,14.1-17.9,6.1-8.9,9.2-17.6,9.2-25.7.1-12-4.5-23.5-13-32.1-8.6-9.4-19.2-14.2-31.4-14.2s-23,4.8-31.6,14.2c-8.5,9.2-12.8,19.9-12.8,31.9v7.1h24.2v-7.1c0-5.6,2-10.6,6.2-15.2,4-4.4,8.6-6.6,14.1-6.6s9.9,2.1,13.9,6.6c4,4.1,6.2,9.7,6.2,15.4s-2.3,9.2-6.6,15c-5.4,7.2-11.4,14-17.8,20.4-3.4,3.4-7,6.8-10.5,10.1-3.5,3.3-7.1,6.5-10.7,9.6l-9.5,8.4c-2.9,2.5-5.4,4.9-7.5,7l-2.1,2.1v24.2h88.8v-24.1h-53.3c4.3-3.8,8.9-8,13.6-12.4,5.5-5.3,11.1-10.9,16.5-16.7h0ZM572.8,267.8v-90.8h-23.6l-55.2,95.7v19.4h54.5v26.2h24.3v-26.1h20.1v-24.3h-20.1ZM524.8,267.8l23.7-41v41h-23.7Z"/>
    <path class="cls-1" d="M-48.3-227"/>
  </g>
  <g id="Layer_2" data-name="Layer 2">
    <path class="cls-2" d="M651.9,174c-15.1-23.2-38.4-39.1-65.5-44.8-22.4-4.7-45.9-1.8-66.4,8.2-14.8-17.5-34.9-29.5-57.5-34.3-7.1-1.5-14.3-2.2-21.5-2.2-32.7,0-62.7,15.7-81.9,40.4h30.9c14.1-11.4,32-18.2,51-18.2s11.3.6,16.9,1.8c20.3,4.3,38,16,49.9,33.2l6,8.6,8.9-5.4c17.7-10.8,38.9-14.5,59.1-10.2,21.3,4.5,39.6,17,51.4,35.2s16,40,11.5,61.3c-.6,2.8-1.4,5.7-2.4,8.8l-.2.9c0,.5-1.2,4.8-5.5,12.4-.3.6-.7,1.3-1.1,1.9l-.5.8c-.3.6-.7,1.1-1.2,1.9-.9,1.4-1.8,2.8-2.7,4.1v.2c-35.8,51.7-115.8,92.7-164.9,114.2-17.5-19.1-29.2-32.8-41.5-49.1h-27.5c15.7,22.2,32.7,42.9,58.1,70l5.3,5.7,7.2-3c111.4-47.8,160.2-94.6,181.5-125.4,1.3-1.8,2.4-3.5,3.4-5.2.5-.8,1-1.6,1.5-2.3l.4-.7c.5-.9,1.1-1.8,1.5-2.6,4.8-8.6,6.8-14.7,7.4-17.3,1.3-3.8,2.2-7.4,3-10.9,5.7-27.1.5-54.8-14.6-78Z"/>
    <path class="cls-2" d="M102.3,200.5c-7.6,0-14.6,2.2-21,6.5-3.3,2.2-6.3,4.9-8.9,8-2.6-3.1-5.6-5.8-8.8-8-6.3-4.3-13.3-6.5-20.9-6.5-12,0-22.1,5.1-30.2,15.2-7.9,9.9-11.9,21.5-11.9,34.6v91h24.5v-91.3c-.2-6.1,1.5-11.2,5.3-15.7,3.5-4.2,7.6-6.3,12.3-6.3s8.6,2.1,12.1,6.3c3.7,4.4,5.4,9.6,5.4,15.9v91h24.5v-91.7c.2-6.2,2-11.2,5.6-15.4,3.4-4.1,7.3-6.1,12-6.1s8.4,2,11.9,6.2c3.5,4.1,5.3,9.2,5.5,15.3v91.7h24.6v-91c.1-13.4-3.9-25.1-11.9-34.7-8.3-9.9-18.4-15-30.1-15Z"/>
    <path class="cls-2" d="M777.2,249.8c0-12.8-4.1-24.1-11.8-33.8,0-.1-3.2-3.8-4.7-5.1-6.4-6-13.9-9.3-22.4-10h-.4c-.9-.1-1.8-.1-2.7-.1h0c-.9,0-1.8,0-2.7.1h-.4c-8.5.6-16,4-22.4,10-1.5,1.4-4.6,5-4.7,5.1-7.7,9.7-11.7,21.1-11.8,33.8h0v91.7h24.5v-91c0-6.3,1.8-11.5,5.4-15.9,3.5-4.2,7.5-6.3,12.2-6.3s8.6,2.1,12.2,6.3c3.7,4.4,5.4,9.6,5.4,15.9v91h24.5v-91l-.2-.7h0Z"/>
    <path class="cls-2" d="M211.6,200.5c-14.7,0-27.4,6.4-37.9,18.9-10.1,12.1-15.3,26.9-15.3,43.8v17.6c0,17.1,5.1,31.9,15.3,44l.3.3c10.4,11.1,23.1,16.8,37.6,16.8s28.1-6.1,38.6-18.2l4.1-4.7-17-20.4-5.1,6.4c-5.9,7.5-12.6,11.1-20.6,11.1s-14.1-3.2-20-9.9c-4.9-5.9-7.6-12.5-8.4-20.4h81.5v-22.6c0-17.2-5.2-32-15.5-44-10.3-12.5-23-18.7-37.6-18.7ZM211.6,228.1c7.7,0,14.2,3.3,19.8,10.1,4.9,5.7,7.6,12.3,8.4,20h-56.7c.8-7.7,3.6-14.3,8.5-20,5.7-6.9,12.2-10.1,20-10.1Z"/>
    <path class="cls-2" d="M355.9,210.9c-1.7-1.3-3.5-2.6-5.3-3.7-7.1-4.5-15-6.8-23.2-6.8-14.8,0-27.5,6.3-37.9,18.7-10.1,12.1-15.3,26.9-15.3,44v17.6c0,17.1,5.1,31.9,15.3,44l.3.3c10.4,11.1,23.1,16.8,37.6,16.8s27.1-5.6,37.6-16.8l.3-.3c10.1-12.1,15.3-26.9,15.3-44v-120.3h-24.6v50.5h-.1ZM355.9,280.8c0,10-2.9,18.4-8.7,25.4-5.5,6.6-12,9.9-19.8,9.9s-14.3-3.3-19.9-10.1c-5.9-7-8.7-15.3-8.7-25.2v-17.6c0-9.9,2.9-18.1,8.7-25,5.7-6.8,12.2-10.1,19.9-10.1s14.2,3.3,19.8,10.1c5.9,6.9,8.7,15.1,8.7,25v17.6Z"/>
    <path class="cls-2" d="M657.6,320.6c-5.9,0-10.8,4.8-10.8,10.8s4.8,10.8,10.8,10.8,10.8-4.8,10.8-10.8c0-6-4.8-10.8-10.8-10.8Z"/>
    <g>
      <path class="cls-2" d="M464.7,265.8c5.5-5.9,10.3-12,14.1-17.9,6.1-8.9,9.2-17.6,9.2-25.7,0-12.3-4.4-23.1-13-32.1-8.6-9.4-19.2-14.2-31.4-14.2s-23,4.8-31.7,14.2c-8.5,9.2-12.8,19.9-12.8,31.9v7.1h24.2v-7.1c0-5.6,2-10.6,6.2-15.2,4-4.4,8.6-6.6,14.1-6.6s9.9,2.1,13.9,6.6c4.2,4.7,6.2,9.7,6.2,15.4s-2.3,9.2-6.6,15c-5.1,6.9-11.1,13.7-17.8,20.4-3.4,3.4-7,6.8-10.5,10.1-3.5,3.3-7.1,6.5-10.7,9.6-3.5,3.1-6.7,5.9-9.5,8.4-2.9,2.5-5.4,4.9-7.5,7l-2.1,2.1v24.2h89v-24.2h-53.4c4.3-3.8,8.9-8,13.6-12.4,5.6-5.3,11.1-10.8,16.5-16.6Z"/>
      <path class="cls-2" d="M573.4,268.5v-90.8h-23.6l-55.2,95.7v19.4h54.5v26.2h24.3v-26.2h20.1v-24.3h-20.1ZM525.4,268.5l23.7-41v41h-23.7Z"/>
    </g>
    <path class="cls-2" d="M876.5,218.2c-10.3-12.7-23-19.1-37.8-19.1s-27.4,6.5-37.8,19.3c-9.9,12.2-14.9,27-14.9,44v17.8c0,17.1,5,32,15,44.2l.2.3c10.4,11.4,23,17.2,37.5,17.2s27-5.8,37.4-17.2l.2-.3c10-12.3,15.1-27.2,15.1-44.2v-17.8c0-17.1-4.9-31.9-14.9-44.2ZM811.5,262.4c0-10,2.8-18.3,8.5-25.2,5.4-6.6,11.5-9.8,18.7-9.8s13.2,3.2,18.6,9.9c5.7,6.9,8.5,15.2,8.5,25.2v17.8c0,10-2.8,18.4-8.6,25.5-5.3,6.6-11.3,9.8-18.5,9.8s-13.2-3.2-18.7-9.7c-5.7-7.1-8.5-15.4-8.5-25.6v-17.9h0Z"/>
  </g>
  <g id="Med24.no_-_ditt_nettapotek" data-name="Med24.no - ditt nettapotek">
    <g>
      <path class="cls-2" d="M651.6,174c-14.9-23.1-38.5-39-65.7-44.6-22.6-4.6-45.7-1.5-66.2,8.2-14.9-18-34.9-29.8-57.5-34.9-7.2-1.5-14.4-2.1-21.5-2.1-32.8,0-62.6,15.9-82.1,40.5h30.8c13.9-11.3,31.8-18,50.8-18s11.3.5,16.9,1.5c20.5,4.1,38,15.9,49.8,33.3l6.2,8.7,8.7-5.6c17.4-10.8,39-14.4,59-10.3,21,4.6,39.5,16.9,51.3,35.4,11.8,18,15.9,40,11.3,61-.5,2.6-1.5,5.6-2.6,8.7v1c0,.5-1,4.6-5.6,12.3-.5.5-.5,1-1,2.1l-.5,1c-.5.5-.5,1-1,2.1-1,1.5-1.5,2.6-2.6,4.1h0c-35.4,51.8-115.4,92.8-164.7,114.4-17.4-19-29.2-32.8-41.6-49.2h-26.7c15.9,22.1,32.8,43.1,58,69.8l5.1,5.6,7.2-3.1c111.3-47.7,160-94.4,181.6-125.2,1-1.5,2.6-3.6,3.6-5.1.5-1,1-1.5,1.5-2.6l.5-.5c.5-1,1-1.5,1.5-2.6,4.6-8.7,6.7-14.9,7.2-17.4,1-3.6,2.1-7.2,3.1-10.8,5.7-27,0-54.7-14.8-77.7Z"/>
      <path class="cls-2" d="M102.2,200.1c-7.7,0-14.9,2.1-21,6.7-3.1,2.1-6.2,5.1-8.7,8.2-2.6-3.1-5.6-5.6-8.7-8.2-6.2-4.1-13.3-6.7-21-6.7-11.8,0-22.1,5.1-30.3,15.4-7.8,9.7-11.9,21.5-11.9,34.4v90.8h24.6v-90.8h0c0-6.2,1.5-11.3,5.1-15.9,3.6-4.1,7.7-6.2,12.3-6.2s8.7,2.1,12.3,6.2c3.6,4.6,5.6,9.7,5.6,15.9v90.8h24.6v-91.3c0-6.2,2.1-11.3,5.6-15.4,3.6-4.1,7.2-6.2,11.8-6.2s8.2,2.1,11.8,6.2c3.6,4.1,5.1,9.2,5.6,15.4v91.8h24.6v-91.3c0-13.3-4.1-25.1-11.8-34.9-8.5-9.8-18.7-14.9-30.5-14.9Z"/>
      <path class="cls-2" d="M776.7,249.4c0-12.8-4.1-24.1-11.8-33.9,0,0-3.1-3.6-4.6-5.1-6.7-6.2-13.9-9.2-22.6-9.7h-6.2c-8.7.5-15.9,4.1-22.6,9.7-1.5,1.5-4.6,5.1-4.6,5.1-7.7,9.7-11.8,21-11.8,33.9h0v91.3h24.6v-90.3c0-6.2,1.5-11.3,5.6-15.9,3.6-4.1,7.7-6.2,12.3-6.2s8.7,2.1,12.3,6.2c3.6,4.6,5.6,9.7,5.6,15.9v90.8h24.6v-90.8l-.8-1h0Z"/>
      <path class="cls-2" d="M211.4,200.1c-14.9,0-27.2,6.2-38,19-10.3,12.3-15.4,26.7-15.4,43.6v17.4c0,16.9,5.1,31.8,15.4,44.1l.5.5c10.3,11.3,23.1,16.9,37.4,16.9s28.2-6.2,38.5-18l4.1-4.6-16.9-20.5-5.1,6.7c-5.6,7.7-12.8,11.3-20.5,11.3s-13.9-3.1-20-9.7c-4.6-5.6-7.7-12.3-8.2-20.5h81.6v-22.6c0-17.4-5.1-31.8-15.4-44.1-10.8-13.3-23.1-19.5-38-19.5ZM211.4,227.8c7.7,0,14.4,3.1,20,10.3,4.6,5.6,7.7,12.3,8.2,20h-56.4c1-7.7,3.6-14.4,8.7-20,5.2-7.2,11.8-10.3,19.5-10.3Z"/>
      <path class="cls-2" d="M355.6,210.9c-1.5-1.5-3.6-2.6-5.1-3.6-7.2-4.6-14.9-7.2-23.1-7.2-14.9,0-27.7,6.2-38,18.5s-15.4,26.7-15.4,44.1v17.4c0,16.9,5.1,31.8,15.4,44.1l.5.5c10.3,11.3,23.1,16.9,37.4,16.9s27.2-5.6,37.4-16.9l.5-.5c10.3-12.3,15.4-26.7,15.4-44.1v-120h-24.6v50.8h-.4ZM355.6,280.6c0,10.3-3.1,18.5-8.7,25.1-5.6,6.7-11.8,9.7-20,9.7s-14.4-3.1-20-10.3c-5.6-7.2-8.7-15.4-8.7-25.1v-17.4c0-9.7,3.1-18,8.7-25.1,5.6-6.7,12.3-10.3,20-10.3s14.4,3.1,20,10.3c5.6,6.7,8.7,14.9,8.7,25.1v18Z"/>
      <path class="cls-2" d="M657.2,320.1c-6.2,0-10.8,4.6-10.8,10.8s4.6,10.8,10.8,10.8,10.8-4.6,10.8-10.8-4.6-10.8-10.8-10.8Z"/>
      <g>
        <path class="cls-2" d="M464.3,265.3c5.6-6.2,10.3-11.8,13.9-18,6.2-8.7,9.2-17.4,9.2-25.6,0-12.3-4.1-23.1-12.8-32.3-8.7-9.2-19-14.4-31.3-14.4s-23.1,4.6-31.8,14.4c-8.7,9.2-12.8,20-12.8,31.8v7.2h24.1v-7.2c0-5.6,2.1-10.8,6.2-15.4,4.6-3.6,9.2-5.6,14.4-5.6s9.7,2.1,13.9,6.7c4.1,4.6,6.2,9.7,6.2,15.4s-2.1,9.2-6.7,14.9c-5.1,6.7-11.3,13.9-18,20.5-3.6,3.6-7.2,6.7-10.3,10.3-3.6,3.1-7.2,6.7-10.8,9.7-3.6,3.1-6.7,6.2-9.2,8.2-3.1,2.6-5.1,5.1-7.7,7.2l-2.1,2.1v24.1h88.7v-24.3h-52.8c4.1-3.6,8.7-8.2,13.9-12.3,5.1-5.6,10.7-11.3,15.8-17.4Z"/>
        <path class="cls-2" d="M573.1,268.3v-90.8h-23.6l-54.9,95.5v19.5h54.4v26.2h24.1v-26.2h20v-24.1h-20ZM524.9,268.3l23.6-41v41h-23.6Z"/>
      </g>
      <path class="cls-2" d="M876.2,218.1c-10.3-12.8-23.1-19-38-19s-27.2,6.7-38,19.5c-9.7,12.3-14.9,27.2-14.9,44.1v18c0,16.9,5.1,31.8,14.9,44.1v.5c10.3,11.3,23.1,16.9,37.4,16.9s27.2-5.6,37.4-17.4v-.5c10.3-12.3,14.9-27.2,14.9-44.1v-18c1.2-16.9-3.9-31.8-13.7-44.1ZM811.1,262.2c0-10.3,2.6-18.5,8.7-25.1,5.1-6.7,11.3-9.7,18.5-9.7s13.3,3.1,18.5,9.7c5.6,7.2,8.7,15.4,8.7,25.1v18c0,10.3-2.6,18.5-8.7,25.6-5.1,6.7-11.3,9.7-18.5,9.7s-13.3-3.1-18.5-9.7c-5.6-7.2-8.7-15.4-8.7-25.6v-18Z"/>
    </g>
    <g>
      <path class="cls-2" d="M566.9,407.9c0-12.3,8.7-22.6,17.4-22.6s5.6,1.5,7.2,4.1h0l1-6.2,2.6-11.3h7.2l-9.7,47.2h-5.6l.5-4.6h0c-3.1,3.1-7.2,5.1-10.8,5.1-6.2.6-9.8-4-9.8-11.7ZM587.4,408.4l2.6-12.8c-1.5-2.6-3.6-4.1-5.6-4.1-5.6,0-10.3,7.2-10.3,15.4s2.1,6.7,4.6,6.7c3.1.4,6.2-1.1,8.7-5.2Z"/>
      <path class="cls-2" d="M611,386.3h7.2l-6.7,32.8h-7.2l6.7-32.8ZM612.1,377.1c0-2.6,2.1-4.6,4.6-4.6s4.1,1.5,4.1,3.6-2.1,4.6-4.6,4.6-4.1-1.6-4.1-3.6Z"/>
      <path class="cls-2" d="M626.9,412c0-1.5,0-2.6.5-3.6l3.1-15.9h-4.6l1-5.6,5.1-.5,3.1-10.3h6.2l-2.1,10.3h7.7l-1,5.6h-7.7l-3.1,15.9v2.1c0,2.6,1,3.6,3.6,3.6s2.1-.5,3.1-.5l1.5,5.1c-1.5,1-4.1,1.5-7.2,1.5-6.6.5-9.2-3.1-9.2-7.7Z"/>
      <path class="cls-2" d="M653.1,412c0-1.5,0-2.6.5-3.6l3.1-15.9h-4.6l1-5.6,5.1-.5,3.1-10.3h6.2l-2.1,10.3h7.7l-1,5.6h-8.2l-3.1,15.9v2.1c0,2.6,1,3.6,3.6,3.6s2.1-.5,3.1-.5l1.5,5.1c-1.5,1-4.1,1.5-7.2,1.5-6.7.5-8.7-3.1-8.7-7.7Z"/>
      <path class="cls-2" d="M698.2,386.3h6.2l-.5,4.6h.5c3.1-3.1,7.2-5.6,11.3-5.6s7.7,3.1,7.7,8.2,0,3.1-.5,4.6l-4.1,20.5h-7.2l4.1-19.5c.5-1.5.5-2.6.5-3.6,0-2.6-1-4.1-4.1-4.1s-4.6,1.5-8.2,5.1l-4.1,22.1h-7.2l5.6-32.3Z"/>
      <path class="cls-2" d="M731.6,405.8c0-12.3,9.2-20.5,18-20.5s10.3,5.1,10.3,12.3-1,6.2-1.5,7.2h-20c-.5,6.7,3.1,9.2,8.2,9.2s5.1-1,6.7-2.1l2.6,4.6c-2.6,2.1-6.2,3.6-10.8,3.6-8.4.1-13.5-5.6-13.5-14.3ZM753.1,399.7c0-.5.5-1.5.5-2.6,0-3.1-1.5-6.2-5.1-6.2s-7.7,3.1-9.2,8.2h13.9v.6h-.1Z"/>
      <path class="cls-2" d="M767.5,412c0-1.5,0-2.6.5-3.6l3.1-15.9h-4.6l1-5.6,5.1-.5,3.1-10.3h6.2l-2.1,10.3h7.7l-1,5.6h-7.7l-3.1,15.9v2.1c0,2.6,1,3.6,3.6,3.6s2.1-.5,3.1-.5l1.5,5.1c-1.5,1-4.1,1.5-7.2,1.5-6.6.5-9.2-3.1-9.2-7.7Z"/>
      <path class="cls-2" d="M793.1,412c0-1.5,0-2.6.5-3.6l3.1-15.9h-4.6l1-5.6,5.1-.5,3.1-10.3h6.2l-2.1,10.3h7.7l-1,5.6h-7.7l-3.1,15.9v2.1c0,2.6,1,3.6,3.6,3.6s2.1-.5,3.1-.5l1.5,5.1c-1.5,1-4.1,1.5-7.2,1.5-6.6.5-9.2-3.1-9.2-7.7Z"/>
      <path class="cls-2" d="M816.2,407.9c0-12.3,8.7-22.6,17.4-22.6s6.2,2.1,7.7,4.6h0l1.5-3.6h6.2l-6.7,32.8h-6.2l.5-4.6h0c-3.1,3.1-7.2,5.1-10.8,5.1-6,.6-9.6-4-9.6-11.7ZM837.3,408.4l2.6-12.8c-1.5-2.6-3.6-4.1-5.6-4.1-5.6,0-10.3,7.2-10.3,15.4s2.1,6.7,4.6,6.7c3,.4,6.1-1.1,8.7-5.2Z"/>
      <path class="cls-2" d="M860.8,386.3h6.2v4.1h0c3.1-2.6,6.7-4.6,10.8-4.6s9.2,4.1,9.2,11.8c0,12.3-8.7,22.6-17.4,22.6s-5.6-1.5-7.2-4.1h0l-1,6.7-2.1,9.7h-7.2l8.7-46.2ZM879.3,398.6c0-4.6-2.1-6.7-4.6-6.7s-5.6,1.5-8.2,4.6l-2.6,13.9c1.5,2.6,3.1,3.6,5.1,3.6,5.7,0,10.3-7.2,10.3-15.4Z"/>
      <path class="cls-2" d="M894.2,406.3c0-12.3,9.2-21,18-21s12.3,5.1,12.3,13.3c0,12.3-9.2,21-18,21-7.2.6-12.3-5.1-12.3-13.3ZM917.3,399.1c0-4.6-2.1-7.7-5.6-7.7-5.1,0-9.7,6.7-9.7,14.9s2.1,7.7,5.6,7.7c5.1,0,9.7-6.6,9.7-14.9Z"/>
      <path class="cls-2" d="M934.2,412c0-1.5,0-2.6.5-3.6l3.1-15.9h-4.6l1-5.6,5.1-.5,3.1-10.3h6.2l-2.1,10.3h7.7l-1,5.6h-7.7l-3.1,15.9v2.1c0,2.6,1,3.6,3.6,3.6s2.1-.5,3.1-.5l1.5,5.1c-1.5,1-4.1,1.5-7.2,1.5-6.6.5-9.2-3.1-9.2-7.7Z"/>
      <path class="cls-2" d="M956.8,405.8c0-12.3,9.2-20.5,18-20.5s10.3,5.1,10.3,12.3-1,6.2-1.5,7.2h-20c-.5,6.7,3.1,9.2,8.2,9.2s5.1-1,6.7-2.1l2.6,4.6c-2.6,2.1-6.2,3.6-10.8,3.6-7.9.1-13.5-5.6-13.5-14.3ZM978.8,399.7c0-.5.5-1.5.5-2.6,0-3.1-1.5-6.2-5.1-6.2s-7.7,3.1-9.2,8.2h13.9v.6h-.1Z"/>
      <path class="cls-2" d="M1000.9,372h7.2l-5.6,29.2h0l14.4-15.4h8.2l-13.3,13.9,7.7,19h-7.2l-5.6-14.4-6.2,6.2-1.5,8.2h-7.2l9.1-46.7Z"/>
    </g>
  </g>
</svg>