<?xml version="1.0" encoding="UTF-8"?>
<svg width="540px" height="76px" viewBox="0 0 540 76" version="1.1" xmlns="http://www.w3.org/2000/svg" xmlns:xlink="http://www.w3.org/1999/xlink">
    <title>Batteriexperten_logo2015</title>
    <defs>
        <path d="M6.271,50.237 L41.599,50.237 L41.599,34.42 L6.271,34.42 L6.271,50.237 Z M6.271,69.676 L41.599,69.676 L41.599,53.86 L6.271,53.86 L6.271,69.676 Z M6.233,30.797 L41.561,30.797 L41.561,14.981 L6.233,14.981 L6.233,30.797 Z M2.833,73.076 L45,73.076 L45,11.578 L2.833,11.578 L2.833,73.076 Z M17.353,2.836 L35.64,2.836 L35.638,8.744 L17.353,8.744 L17.353,2.836 Z M38.473,8.744 L38.473,0 L9.359,0 L9.359,8.744 L0,8.744 L0,75.912 L47.833,75.912 L47.833,8.744 L38.473,8.744 L38.473,8.744 Z" id="path-1"></path>
    </defs>
    <g id="Batteriexperten_logo2015" stroke="none" stroke-width="1" fill="none" fill-rule="evenodd">
        <polyline id="Fill-4" fill="#F6BF35" points="243.385 6.308 219.788 32.313 46.41 32.313 46.41 28.345 218.029 28.343 243.432 0.349 304.301 69.646 345.584 28.345 539.91 28.345 539.91 32.313 347.23 32.313 304.117 75.448 243.385 6.308"></polyline>
        <path d="M70.68,50.589 L70.68,66.077 C72.709,66.009 74.003,65.69 74.562,65.12 C75.12,64.552 75.4,63.149 75.4,60.915 L75.4,55.753 C75.4,53.382 75.148,51.946 74.647,51.444 C74.145,50.942 72.823,50.657 70.68,50.589 Z M70.68,29.665 L70.68,41.974 C71.296,41.951 71.774,41.939 72.117,41.939 C73.53,41.939 74.43,41.593 74.818,40.896 C75.206,40.203 75.4,38.213 75.4,34.931 C75.4,33.198 75.24,31.985 74.921,31.29 C74.602,30.595 74.186,30.155 73.673,29.974 C73.16,29.791 72.162,29.688 70.68,29.665 Z M56.282,20.194 L70.646,20.194 C75.183,20.194 78.62,20.548 80.958,21.254 C83.294,21.96 85.181,23.39 86.618,25.542 C88.054,27.694 88.772,31.162 88.772,35.946 C88.772,39.181 88.265,41.435 87.25,42.71 C86.235,43.988 84.235,44.966 81.248,45.649 C84.577,46.401 86.834,47.649 88.02,49.396 C89.205,51.14 89.798,53.813 89.798,57.417 L89.798,62.548 C89.798,66.29 89.371,69.06 88.516,70.862 C87.661,72.663 86.298,73.895 84.429,74.556 C82.559,75.218 78.729,75.548 72.937,75.548 L56.282,75.548 L56.282,20.194 L56.282,20.194 Z" id="Fill-5" fill="#FFFFFE"></path>
        <path d="M112.221,55.786 C111.492,49.517 110.761,41.767 110.028,32.538 C108.561,43.136 107.64,50.886 107.265,55.786 L112.221,55.786 Z M119.853,20.194 L128.086,75.548 L113.371,75.548 L112.599,65.599 L107.448,65.599 L106.583,75.548 L91.697,75.548 L99.041,20.194 L119.853,20.194 L119.853,20.194 Z" id="Fill-6" fill="#FFFFFE"></path>
        <polyline id="Fill-7" fill="#FFFFFE" points="155.669 20.194 155.669 31.272 147.119 31.272 147.119 75.548 132.72 75.548 132.72 31.272 124.205 31.272 124.205 20.194 155.669 20.194"></polyline>
        <polyline id="Fill-8" fill="#FFFFFE" points="187.955 20.194 187.955 31.272 179.404 31.272 179.404 75.548 165.006 75.548 165.006 31.272 156.49 31.272 156.49 20.194 187.955 20.194"></polyline>
        <polyline id="Fill-9" fill="#FFFFFE" points="191.238 20.194 215.247 20.194 215.247 31.272 205.636 31.272 205.636 41.769 214.631 41.769 214.631 52.3 205.636 52.3 205.636 64.47 216.204 64.47 216.204 75.548 191.238 75.548 191.238 20.194"></polyline>
        <path d="M234.741,29.665 L234.741,41.974 C236.36,41.974 237.494,41.751 238.144,41.308 C238.794,40.863 239.119,39.421 239.119,36.981 L239.119,33.938 C239.119,32.185 238.805,31.033 238.178,30.485 C237.551,29.938 236.405,29.665 234.741,29.665 Z M220.343,20.194 L230.535,20.194 C237.329,20.194 241.929,20.457 244.334,20.981 C246.74,21.506 248.7,22.845 250.217,24.999 C251.733,27.152 252.491,30.589 252.491,35.307 C252.491,39.615 251.956,42.509 250.884,43.992 C249.812,45.472 247.703,46.362 244.557,46.657 C247.407,47.364 249.322,48.31 250.302,49.495 C251.283,50.681 251.893,51.769 252.132,52.761 C252.372,53.753 252.491,56.481 252.491,60.948 L252.491,75.548 L239.119,75.548 L239.119,57.153 C239.119,54.19 238.885,52.356 238.417,51.649 C237.95,50.942 236.725,50.589 234.741,50.589 L234.741,75.548 L220.343,75.548 L220.343,20.194 L220.343,20.194 Z" id="Fill-10" fill="#FFFFFE"></path>
        <polygon id="Fill-11" fill="#FFFFFE" points="258.066 75.548 272.464 75.548 272.464 20.194 258.066 20.194"></polygon>
        <polyline id="Fill-12" fill="#FFFFFE" points="278.245 20.194 302.253 20.194 302.253 31.272 292.643 31.272 292.643 41.769 301.638 41.769 301.638 52.3 292.643 52.3 292.643 64.47 303.211 64.47 303.211 75.548 278.245 75.548 278.245 20.194"></polyline>
        <path d="M336.541,20.194 L331.479,44.675 L339.105,75.548 L325.767,75.548 C324.172,70.03 322.713,63.306 321.389,55.376 C321.027,58.888 320.521,62.605 319.872,66.522 L318.516,75.548 L304.495,75.548 L309.727,44.675 L304.495,20.194 L318.414,20.194 C318.667,21.72 319.167,24.26 319.915,27.816 C320.518,30.526 321.009,33.023 321.389,35.307 L324.467,20.194 L336.541,20.194" id="Fill-13" fill="#FFFFFE"></path>
        <path d="M355.539,29.665 L355.539,43.752 C355.949,43.775 356.302,43.787 356.599,43.787 C357.92,43.787 358.838,43.46 359.352,42.812 C359.865,42.162 360.122,40.812 360.122,38.76 L360.122,34.213 C360.122,32.321 359.825,31.091 359.232,30.521 C358.639,29.95 357.408,29.665 355.539,29.665 Z M341.14,20.194 L355.641,20.194 C359.562,20.194 362.578,20.503 364.687,21.118 C366.795,21.733 368.381,22.622 369.441,23.784 C370.501,24.947 371.219,26.354 371.596,28.007 C371.972,29.66 372.16,32.218 372.16,35.683 L372.16,40.503 C372.16,44.037 371.795,46.612 371.066,48.229 C370.335,49.849 368.997,51.091 367.047,51.956 C365.097,52.823 362.549,53.257 359.403,53.257 L355.539,53.257 L355.539,75.548 L341.14,75.548 L341.14,20.194 L341.14,20.194 Z" id="Fill-14" fill="#FFFFFE"></path>
        <polyline id="Fill-15" fill="#FFFFFE" points="376.298 20.194 400.307 20.194 400.307 31.272 390.697 31.272 390.697 41.769 399.692 41.769 399.692 52.3 390.697 52.3 390.697 64.47 401.265 64.47 401.265 75.548 376.298 75.548 376.298 20.194"></polyline>
        <path d="M419.801,29.665 L419.801,41.974 C421.419,41.974 422.554,41.751 423.205,41.308 C423.854,40.863 424.179,39.421 424.179,36.981 L424.179,33.938 C424.179,32.185 423.865,31.033 423.239,30.485 C422.611,29.938 421.465,29.665 419.801,29.665 Z M405.403,20.194 L415.594,20.194 C422.389,20.194 426.989,20.457 429.394,20.981 C431.799,21.506 433.76,22.845 435.277,24.999 C436.793,27.152 437.551,30.589 437.551,35.307 C437.551,39.615 437.015,42.509 435.944,43.992 C434.872,45.472 432.763,46.362 429.617,46.657 C432.466,47.364 434.382,48.31 435.363,49.495 C436.342,50.681 436.953,51.769 437.192,52.761 C437.432,53.753 437.551,56.481 437.551,60.948 L437.551,75.548 L424.179,75.548 L424.179,57.153 C424.179,54.19 423.945,52.356 423.478,51.649 C423.01,50.942 421.785,50.589 419.801,50.589 L419.801,75.548 L405.403,75.548 L405.403,20.194 L405.403,20.194 Z" id="Fill-16" fill="#FFFFFE"></path>
        <polyline id="Fill-17" fill="#FFFFFE" points="472.128 20.194 472.128 31.272 463.579 31.272 463.579 75.548 449.18 75.548 449.18 31.272 440.664 31.272 440.664 20.194 472.128 20.194"></polyline>
        <polyline id="Fill-18" fill="#FFFFFE" points="475.413 20.194 499.421 20.194 499.421 31.272 489.811 31.272 489.811 41.769 498.806 41.769 498.806 52.3 489.811 52.3 489.811 64.47 500.379 64.47 500.379 75.548 475.413 75.548 475.413 20.194"></polyline>
        <polyline id="Fill-19" fill="#FFFFFE" points="536.666 20.194 536.666 75.548 524.045 75.548 516.555 50.384 516.555 75.548 504.517 75.548 504.517 20.194 516.555 20.194 524.627 45.118 524.627 20.194 536.666 20.194"></polyline>
        <g id="Group-23" transform="translate(0.348000, -0.093000)">
            <mask id="mask-2" fill="white">
                <use xlink:href="#path-1"></use>
            </mask>
            <g id="Clip-21"></g>
            <polygon id="Fill-20" fill="#FFFFFE" mask="url(#mask-2)" points="16.604 75.912 47.833 75.912 47.833 0 16.604 0"></polygon>
            <polyline id="Fill-22" fill="#F6BF35" mask="url(#mask-2)" points="17.395 77.547 -1.521 77.547 -1.521 -1.287 17.353 -1.287 17.395 77.547"></polyline>
        </g>
    </g>
</svg>