<?xml version="1.0" encoding="utf-8"?>
<!-- Generator: Adobe Illustrator 26.2.1, SVG Export Plug-In . SVG Version: 6.00 Build 0)  -->
<svg version="1.1" id="Layer_1" xmlns="http://www.w3.org/2000/svg" xmlns:xlink="http://www.w3.org/1999/xlink" x="0px" y="0px"
	 viewBox="0 0 690 137.4" style="enable-background:new 0 0 690 137.4;" xml:space="preserve">
<g>
	<g>
		<g>
			<rect x="67.51" y="110.89" width="2" height="18.7"/>
			<path d="M92.23,123.51c0,0.8,0.14,2.12,0.14,2.12s-0.77-1.1-1.29-1.73l-11.13-13.2h-0.32v18.89h1.86v-12.62
				c0-0.8-0.16-2.12-0.16-2.12s0.77,1.1,1.29,1.73l11.13,13.2h0.33v-18.89h-1.84L92.23,123.51L92.23,123.51z"/>
			<path d="M109.93,119.14l-1.48-0.69c-2.08-0.96-2.96-1.7-2.96-3.36c0-1.59,1.12-2.67,2.96-2.67c1.75,0,2.74,0.88,3.45,2.03
				l1.59-0.99c-0.99-1.65-2.55-2.8-5.04-2.8c-2.8,0-4.91,1.79-4.91,4.48c0,2.61,1.45,3.9,4.11,5.11l1.48,0.69
				c2.33,1.04,3.51,2.01,3.51,3.9c0,1.98-1.7,3.19-3.86,3.19c-2.63,0-3.92-1.35-4.8-2.91l-1.64,0.88c0.99,1.98,2.93,3.79,6.5,3.79
				c3.34,0,5.78-1.87,5.78-4.95C114.62,122.05,113.03,120.51,109.93,119.14z"/>
			<path d="M127.8,110.89h-4.22v18.7h1.97v-4.65h2.25c5.1,0,7.7-2.89,7.7-7.01C135.5,113.72,132.89,110.89,127.8,110.89z
				 M127.69,123.21h-2.14v-10.56h2.14c4.19,0,5.76,2.2,5.76,5.28C133.44,121.01,131.88,123.21,127.69,123.21z"/>
			<rect x="144.59" y="110.89" width="2" height="18.7"/>
			<path d="M168.62,117.79c0-4.04-2.63-6.9-7.73-6.9h-4.19v18.7h1.97v-4.95h2.22c0.66,0,1.34-0.06,1.97-0.17l3.59,5.11h2.33
				l-4.06-5.75C167.31,122.8,168.62,120.6,168.62,117.79z M160.79,122.91h-2.11v-10.26h2.11c4.19,0,5.78,2.2,5.78,5.14
				S165.01,122.91,160.79,122.91z"/>
			<path d="M183.89,110.7l-7.73,18.89h1.95l1.23-3.13h9.43l1.26,3.13h2.08l-7.89-18.89H183.89L183.89,110.7z M188.05,124.75h-8.03
				l3.29-8.3c0.36-0.88,0.74-2.23,0.74-2.23s0.36,1.35,0.71,2.23L188.05,124.75z"/>
			<path d="M206.44,119.14l-1.48-0.69c-2.08-0.96-2.96-1.7-2.96-3.36c0-1.59,1.12-2.67,2.96-2.67c1.75,0,2.74,0.88,3.45,2.03
				l1.59-0.99c-0.99-1.65-2.55-2.8-5.04-2.8c-2.8,0-4.91,1.79-4.91,4.48c0,2.61,1.45,3.9,4.11,5.11l1.48,0.69
				c2.33,1.04,3.51,2.01,3.51,3.9c0,1.98-1.7,3.19-3.86,3.19c-2.63,0-3.92-1.35-4.8-2.91l-1.64,0.88c0.99,1.98,2.93,3.79,6.5,3.79
				c3.34,0,5.78-1.87,5.78-4.95C211.12,122.05,209.53,120.51,206.44,119.14z"/>
			<path d="M226.24,124.61c0,2.39-1.23,3.41-3.07,3.41c-1.45,0-2.41-0.8-3.12-2.03l-1.62,1.02c0.85,1.57,2.33,2.8,4.82,2.8
				c2.88,0,4.99-1.7,4.99-5.14v-13.78h-2L226.24,124.61L226.24,124.61z"/>
			<path d="M246.74,110.67c-5.29,0-9.56,3.93-9.56,9.57s4.28,9.57,9.56,9.57c5.32,0,9.59-3.93,9.59-9.57
				S252.06,110.67,246.74,110.67z M246.74,128.02c-4.33,0-7.51-3.33-7.51-7.78s3.18-7.78,7.51-7.78c4.36,0,7.54,3.33,7.54,7.78
				S251.1,128.02,246.74,128.02z"/>
			<path d="M277.9,123.51c0,0.8,0.14,2.12,0.14,2.12s-0.77-1.1-1.29-1.73l-11.13-13.2h-0.33v18.89h1.86v-12.62
				c0-0.8-0.16-2.12-0.16-2.12s0.77,1.1,1.29,1.73l11.13,13.2h0.33v-18.89h-1.84V123.51z"/>
			<rect x="301.1" y="107.02" width="1.04" height="30.38"/>
			<path d="M332.17,122.47h5.54v3.85c-1.15,0.93-2.96,1.7-5.51,1.7c-4.52,0-7.7-3.33-7.7-7.78s3.15-7.78,7.54-7.78
				c2.3,0,3.95,0.72,5.15,1.98l1.34-1.35c-1.53-1.65-3.81-2.42-6.5-2.42c-5.43,0-9.59,3.93-9.59,9.57s4.19,9.57,9.76,9.57
				c3.51,0,6-1.24,7.37-2.58v-6.52h-7.4V122.47z"/>
			<path d="M354.59,110.7l-7.73,18.89h1.95l1.23-3.13h9.43l1.26,3.13h2.08l-7.89-18.89H354.59L354.59,110.7z M358.75,124.75h-8.03
				l3.29-8.3c0.36-0.88,0.74-2.23,0.74-2.23s0.36,1.35,0.71,2.23L358.75,124.75z"/>
			<path d="M376.15,123.57c-0.38,0.93-0.79,2.53-0.79,2.53s-0.41-1.59-0.79-2.53l-5.12-12.68h-2.14l7.87,18.89h0.33l7.76-18.89h-2
				L376.15,123.57z"/>
			<polygon points="393.71,123.15 402.07,123.15 402.07,121.42 393.71,121.42 393.71,112.65 403.09,112.65 403.09,110.89 
				391.74,110.89 391.74,129.59 403.47,129.59 403.47,127.83 393.71,127.83 			"/>
			<path d="M424.49,117.79c0-4.04-2.63-6.9-7.73-6.9h-4.19v18.7h1.97v-4.95h2.22c0.66,0,1.34-0.06,1.97-0.17l3.59,5.11h2.33
				l-4.06-5.75C423.17,122.8,424.49,120.6,424.49,117.79z M416.65,122.91h-2.11v-10.26h2.11c4.19,0,5.78,2.2,5.78,5.14
				S420.87,122.91,416.65,122.91z"/>
			<rect x="445.17" y="107.02" width="1.04" height="30.38"/>
			<rect x="467.67" y="110.89" width="2" height="18.7"/>
			<path d="M492.38,123.51c0,0.8,0.14,2.12,0.14,2.12s-0.77-1.1-1.29-1.73l-11.13-13.2h-0.33v18.89h1.86v-12.62
				c0-0.8-0.16-2.12-0.16-2.12s0.77,1.1,1.29,1.73l11.13,13.2h0.33v-18.89h-1.84V123.51z"/>
			<polygon points="502.6,112.65 508.33,112.65 508.33,129.59 510.3,129.59 510.3,112.65 516.03,112.65 516.03,110.89 502.6,110.89 
							"/>
			<polygon points="526.39,123.15 534.74,123.15 534.74,121.42 526.39,121.42 526.39,112.65 535.76,112.65 535.76,110.89 
				524.41,110.89 524.41,129.59 536.14,129.59 536.14,127.83 526.39,127.83 			"/>
			<path d="M557.16,117.79c0-4.04-2.63-6.9-7.73-6.9h-4.19v18.7h1.97v-4.95h2.22c0.66,0,1.34-0.06,1.97-0.17l3.59,5.11h2.33
				l-4.06-5.75C555.84,122.8,557.16,120.6,557.16,117.79z M549.32,122.91h-2.11v-10.26h2.11c4.19,0,5.78,2.2,5.78,5.14
				C555.1,120.73,553.54,122.91,549.32,122.91z"/>
			<rect x="566.58" y="110.89" width="2" height="18.7"/>
			<path d="M595.6,110.64l-2.19,2.2c-1.67-1.37-3.84-2.17-6.22-2.17c-5.29,0-9.56,3.93-9.56,9.57c0,2.45,0.82,4.59,2.17,6.21
				l-2.22,2.2l1.23,1.21l2.19-2.2c1.67,1.38,3.84,2.14,6.19,2.14c5.32,0,9.59-3.93,9.59-9.57c0-2.45-0.82-4.59-2.16-6.21l2.19-2.17
				L595.6,110.64z M579.68,120.24c0-4.45,3.18-7.78,7.51-7.78c1.89,0,3.59,0.63,4.85,1.73c0.03,0-10.85,10.86-10.85,10.86
				C580.23,123.73,579.68,122.08,579.68,120.24z M594.72,120.24c0,4.45-3.18,7.78-7.54,7.78c-1.86,0-3.53-0.63-4.82-1.7l10.85-10.89
				C594.18,116.75,594.72,118.4,594.72,120.24z"/>
			<path d="M617.66,117.79c0-4.04-2.63-6.9-7.73-6.9h-4.19v18.7h1.97v-4.95h2.22c0.66,0,1.34-0.06,1.97-0.17l3.59,5.11h2.33
				l-4.06-5.75C616.34,122.8,617.66,120.6,617.66,117.79z M609.82,122.91h-2.11v-10.26h2.11c4.19,0,5.78,2.2,5.78,5.14
				C615.6,120.73,614.04,122.91,609.82,122.91z"/>
			<path d="M174.55,83.53v0.22h25.08v-0.22c-4.24-2.57-4.91-4.25-4.91-11.63V28.73h-20.73v0.22c4.46,2.57,5.46,4.7,5.46,12.19V71.9
				C179.46,79.28,178.9,80.96,174.55,83.53z"/>
			<path d="M146.45,84.87c11.93,0,19.84-7.27,22.07-19.35l-0.78-0.23c-2.9,8.28-8.47,11.86-14.83,11.86
				c-9.92,0-15.83-9.06-15.83-23.26h31.66c0-15.1-7.02-26.28-22.18-26.28c-13.49,0-25.19,11.52-25.19,28.74
				C121.37,74.36,132.85,84.87,146.45,84.87z M146.45,29.74c6.58,0,7.58,9.73,7.58,21.7H137.2
				C137.53,38.69,140.98,29.74,146.45,29.74z"/>
			<path d="M379.27,65.53l-0.78-0.23c-2.9,8.28-8.47,11.86-14.83,11.86c-9.92,0-15.83-9.06-15.83-23.26h31.66
				c0-15.1-7.02-26.28-22.18-26.28c-13.49,0-25.19,11.52-25.19,28.74c0,18.01,11.48,28.52,25.08,28.52
				C369.13,84.87,377.05,77.61,379.27,65.53z M357.2,29.74c6.58,0,7.58,9.73,7.58,21.7h-16.83
				C348.29,38.69,351.74,29.74,357.2,29.74z"/>
			<path d="M460.29,83.53v0.22h25.08v-0.22c-4.24-2.57-4.9-4.25-4.9-11.63V44.95c0-10.62-5.35-17.33-15.27-17.33
				c-8.25,0-14.38,5.26-16.94,14.43V0h-20.95v0.22c4.46,2.46,5.69,4.7,5.69,12.08v59.61c0,7.38-0.56,9.06-4.91,11.63v0.22h25.08
				v-0.22c-4.24-2.57-4.91-4.25-4.91-11.63V50.66c0-10.07,4.24-15.1,9.59-15.1s7.36,4.25,7.36,9.39V71.9
				C465.19,79.28,464.63,80.96,460.29,83.53z"/>
			<path d="M593.33,67.04c0-9.73-5.46-14.88-17.94-19.24c-9.48-3.24-11.93-5.59-11.93-10.51c0-4.36,3.01-7.6,7.92-7.6
				c7.36,0,13.93,6.82,18.06,16.33h0.23V27.57c-1.79,1.68-3.23,2.68-5.35,2.68c-3.57,0-6.91-2.68-13.15-2.68
				c-9.59,0-17.72,6.49-17.72,16.67c0,9.73,5.24,14.76,16.94,18.9c7.8,2.91,12.04,4.92,12.04,10.74c0,5.48-3.57,8.95-9.03,8.95
				c-8.25,0-15.05-7.27-20.18-19.13H553l1.12,21.14c1.34-1.34,2.79-2.57,5.02-2.57c3.46,0,7.47,2.57,14.38,2.57
				C584.42,84.82,593.33,78.34,593.33,67.04z"/>
			<path d="M624.72,27.61c-13.49,0-25.19,11.52-25.19,28.74c0,18.01,11.48,28.52,25.08,28.52c11.93,0,19.84-7.27,22.07-19.35
				l-0.78-0.23c-2.9,8.28-8.47,11.86-14.82,11.86c-9.92,0-15.83-9.06-15.83-23.26h31.66C646.91,38.8,639.88,27.61,624.72,27.61z
				 M615.36,51.44c0.33-12.75,3.79-21.7,9.25-21.7c6.58,0,7.58,9.73,7.58,21.7H615.36z"/>
			<path d="M79.17,83.53v0.22h27.31v-0.22c-5.01-2.35-7.13-4.14-7.13-11.41V28.73H78.62v0.22c4.46,2.57,5.46,4.7,5.46,12.19V71.9
				C84.07,79.28,83.51,80.96,79.17,83.53z"/>
			<ellipse cx="111.13" cy="36.55" rx="7.84" ry="7.87"/>
			<path d="M386.35,83.53v0.22h27.31v-0.22c-5.01-2.35-7.13-4.14-7.13-11.41V28.73H385.8v0.22c4.46,2.57,5.46,4.7,5.46,12.19V71.9
				C391.26,79.28,390.7,80.96,386.35,83.53z"/>
			<ellipse cx="418.33" cy="36.55" rx="7.84" ry="7.87"/>
			<path d="M686.33,65.03c-1.23,7.83-4.24,11.97-8.7,11.97c-4.01,0-6.02-3.02-6.02-9.4V31.59h11.99l0.56-2.91h-12.54V10.69
				l-20.84,20.9h5.59l-0.02,35.79c-0.11,11.97,5.8,17.45,14.82,17.45c10.81,0,15.16-8.5,16.16-19.57L686.33,65.03z"/>
			<path d="M24.08,70.22V19c0-7.38,1-10.51,5.91-13.31V5.47H2v0.22C6.9,8.49,7.8,11.62,7.8,19v51.22c0,7.38-0.89,10.51-5.8,13.31
				v0.22h27.98v-0.22C25.08,80.74,24.08,77.6,24.08,70.22z"/>
			<path d="M64.65,71.34L41.7,32.73L29.93,44.54l21.72,35.2c1.54,2.49,4.25,4.01,7.17,4.01h17.31v-0.22
				C71.67,81.18,68.22,77.16,64.65,71.34z"/>
			<polygon points="49.12,5.47 49.12,25.3 68.88,5.47 			"/>
			<path d="M290.2,71.9c0,0,0.11-28.34-0.09-30.04c-0.01,0.02-0.02,0.04-0.02,0.07c-0.89-8.95-6.02-14.32-14.72-14.32
				c-5.68,0-10.22,2.63-13.23,7.39c-0.7,1.29-1.14,2.84-0.23,4.08l0.02,0.02c1.58-2.35,3.73-3.55,6.2-3.55
				c5.35,0,6.69,4.25,6.69,9.39v26.95c0,7.38-0.56,9.06-4.91,11.63v0.22h25.08v-0.22C290.76,80.96,290.2,79.28,290.2,71.9z"/>
			<path d="M306.89,44.95V71.9c0,7.38-0.56,9.06-4.79,11.63v0.22h25.08v-0.22c-4.35-2.57-4.91-4.25-4.91-11.63V44.95
				c0-10.62-4.9-17.33-14.82-17.33c-6.02,0-10.84,2.89-13.82,8.2c-0.65,1.33-1.04,2.93-0.13,4.18l0.03,0.04
				c1.57-2.95,3.9-4.47,6.67-4.47C305.55,35.55,306.89,39.8,306.89,44.95z"/>
			<path d="M226.91,71.9c0,0,0.06-23.11,0.13-23.99l-0.05,0.08c0.11-2.41,0-4.4-0.19-6.08v0.01c-0.89-8.95-6.02-14.32-14.71-14.32
				c-5.58,0-10.05,2.54-13.06,7.13c-0.54,1.07-0.88,2.38-0.14,3.39l0.27,0.31c1.52-1.89,3.46-2.89,5.69-2.89
				c5.35,0,6.69,4.25,6.69,9.39v26.95c0,7.38-0.56,9.06-4.9,11.63v0.22h25.08v-0.22C227.47,80.96,226.91,79.28,226.91,71.9z"/>
			<path d="M258.98,71.9V44.95c0-10.62-4.91-17.33-14.83-17.33c-6.35,0-11.33,3.26-14.26,9.14c-0.35,1.08-0.41,2.23,0.28,3.17
				l0.07,0.08c1.57-2.94,3.89-4.46,6.66-4.46c5.35,0,6.69,4.25,6.69,9.39v26.95c0,7.38-0.56,9.06-4.79,11.63v0.22h25.08v-0.22
				C259.54,80.96,258.98,79.28,258.98,71.9z"/>
			<path d="M525.94,83.76h20.73v-0.22c-4.24-2.35-5.35-4.36-5.35-11.63V28.74h-20.85v0.22c4.46,2.57,5.46,4.7,5.46,12.19v20.69
				c0,10.07-4.12,14.99-9.48,14.99c-5.13,0-7.13-4.47-7.13-9.5V28.75h-20.73v0.22c4.46,2.57,5.46,4.7,5.46,12.19v26.4
				c0,10.51,5.46,17.33,15.05,17.33c8.36,0,14.49-5.26,16.83-14.54L525.94,83.76L525.94,83.76z"/>
		</g>
	</g>
</g>
</svg>
